<svg width="377" height="410" viewBox="0 0 377 410" fill="none" xmlns="http://www.w3.org/2000/svg">
<path d="M37.6313 2.49298C39.4607 1.8925 41.1362 1.89866 42.7951 1.8739C54.0445 1.7052 65.314 2.51003 76.5373 1.37562C87.6459 0.252053 98.7544 0.315496 109.872 0.166925C116.786 0.0740676 123.643 0.994881 130.516 1.59845C142.214 2.62607 153.92 2.19116 165.621 2.22056C183.7 2.26544 201.783 2.4017 219.86 2.02409C240.147 1.60159 260.454 2.48365 280.72 1.0521C294.503 0.0786493 308.278 0.134433 322.061 0.0013379C327.757 -0.0543763 333.285 1.64485 338.907 2.32116C340.626 2.52854 341.429 3.8564 341.762 5.86366C341.912 6.77366 341.987 7.70998 342.046 8.6401C343.132 25.5231 343.204 42.4463 343.034 59.3679C342.874 75.3811 344.256 91.2891 344.656 107.264C345.217 129.706 345.883 152.143 345.641 174.604C345.635 175.196 345.613 175.803 345.508 176.374C345.396 176.987 345.09 177.457 344.539 177.371C344.082 177.299 343.88 176.838 343.847 176.301C343.804 175.625 343.822 174.942 343.821 174.263C343.785 161.505 344.001 148.734 343.653 135.989C343.233 120.609 343.279 105.17 342.279 89.8591C341.001 70.2972 341.807 50.757 341.462 31.2153C341.325 23.3998 340.472 15.6199 340.839 7.7843C340.949 5.43811 339.904 4.90884 338.341 4.55134C322.645 0.967055 306.852 1.99931 291.066 2.74991C273.325 3.59336 255.584 4.15666 237.828 4.30678C206.156 4.57297 174.485 4.54206 142.814 4.63182C135.448 4.65194 128.153 3.40912 120.811 2.98662C104.48 2.04722 88.1748 2.47283 71.8764 3.87652C65.7021 4.4089 59.5242 4.09476 53.3499 3.98024C48.605 3.89202 43.8636 3.50671 39.1211 3.24516C38.6833 3.22194 38.2017 3.37822 37.6313 2.49298Z" fill="#FFA1AD"/>
<path d="M36.1795 241.786C36.8646 244.03 36.977 246.283 37.0244 248.515C37.5616 273.425 37.7509 298.342 37.7319 323.262C37.7118 348.268 37.7248 373.273 37.7272 398.279C37.7272 402.362 37.8586 402.69 40.8664 402.461C48.9186 401.846 56.7826 403.753 64.7094 405.053C75.36 406.8 86.0733 407.491 96.8139 407.582C109.502 407.689 210.827 403.518 223.487 402.515C234.974 401.605 246.487 401.574 257.983 400.695C272.652 399.575 287.305 398.172 301.971 397.022C314.445 396.046 326.932 396.297 339.415 396.218C340.128 396.213 341.335 395.784 341.371 397.078C341.412 398.482 340.194 398.377 339.375 398.366C329.749 398.231 320.128 398.589 310.508 398.903C297.177 399.336 283.899 400.889 270.6 402.038C251.002 403.733 142.687 407.503 123.091 409.102C110.019 410.168 96.9665 410.264 83.9115 409.501C73.0692 408.868 62.2884 407.178 51.5537 404.994C47.6276 404.196 43.6317 404.832 39.669 404.809C36.3475 404.788 36.0623 404.49 36.0588 400.229C36.0245 359.148 36.015 318.068 35.9689 276.986C35.957 266.017 35.8387 255.047 35.7867 244.078C35.7855 243.366 35.563 242.564 36.1795 241.786Z" fill="#FFA1AD"/>
<path d="M36.6729 11.0432C37.3403 12.1312 37.1722 13.0118 37.1758 13.8212C37.229 25.2967 37.4491 36.7769 37.2409 48.2448C37.0729 57.4949 36.2398 66.7203 36.2777 75.9921C36.2812 76.7334 36.3191 77.8182 35.537 77.7378C34.4353 77.6248 34.6211 76.3016 34.6602 75.3297C34.9051 69.3915 35.0057 63.4316 35.4908 57.5259C36.3073 47.601 36.0434 37.6575 36.1416 27.7187C36.1972 22.2851 36.2907 16.8607 36.6729 11.0432Z" fill="#FFA1AD"/>
<path d="M340.56 379.164C340.56 384.688 340.563 390.211 340.556 395.735C340.555 396.749 340.618 397.793 340.116 398.68C339.819 399.205 339.4 399.438 338.92 399.285C338.423 399.126 338.487 398.63 338.521 398.075C339.201 387.139 338.566 376.173 338.955 365.228C338.998 364.041 338.946 362.845 339.017 361.661C339.068 360.81 338.799 359.435 339.799 359.466C340.594 359.491 340.429 360.776 340.441 361.576C340.493 364.974 340.513 368.373 340.53 371.772C340.543 374.235 340.532 376.699 340.532 379.164C340.542 379.164 340.55 379.164 340.56 379.164Z" fill="#FFA1AD"/>
<path d="M27.1487 122.894C24.2131 118.946 19.7533 121.368 17.5086 125.236C16.2757 127.362 15.7243 129.995 15.3669 132.579C15.3231 132.898 15.2853 133.217 15.2462 133.536C14.5481 131.23 13.3601 129.393 11.6017 128.3C7.92532 126.014 2.57456 128.523 0.744036 133.274C-1.32551 138.643 1.29307 144.793 4.06311 148.743C7.69339 153.918 12.2111 158.155 16.3242 162.643C17.0779 163.465 19.7722 160.56 19.4894 160.252C16.0153 156.462 12.4064 152.81 9.09084 148.781C6.48527 145.617 3.94952 141.803 3.35434 137.061C3.0952 134.997 3.11177 130.718 5.07482 130.114C6.80003 129.583 8.92281 130.732 10.196 132.206C12.8868 135.325 12.2005 140.731 14.8108 143.829C15.3563 144.476 18.0127 142.543 17.9855 141.63C17.8364 136.549 17.963 130.725 19.5155 125.976C19.7793 125.168 20.1509 124.081 20.6656 123.447C20.7236 123.434 20.7898 123.419 20.8762 123.399C21.0632 123.41 21.2501 123.421 21.4371 123.431C21.8785 123.506 22.3068 123.719 22.6985 123.99C24.29 125.09 25.3099 127.35 25.9158 129.49C28.9722 140.288 24.4947 151.265 19.2173 159.338C18.6872 160.15 19.9272 159.765 20.1225 159.674C20.8999 159.311 21.6631 158.658 22.2003 157.838C25.4579 152.856 28.3439 147.183 29.5153 140.724C30.54 135.066 30.4513 127.334 27.1487 122.894Z" fill="#FFA1AD"/>
<path d="M41.7006 102.593C40.6523 96.8139 40.4428 90.6405 41.8758 85.0041C42.4816 82.6208 44.0909 79.9418 45.8953 80.8023C46.6941 81.183 47.2182 82.1719 47.6442 83.1346C49.8534 88.1241 50.8876 93.9895 50.5704 99.7405C52.3442 94.3393 55.0846 89.486 58.5078 85.6773C59.2675 84.8323 60.2816 83.9935 61.1951 84.5181C62.2446 85.1217 62.3263 87.0082 62.1665 88.4924C61.1051 98.2996 56.688 106.904 51.8531 114.268C45.7959 123.49 42.9312 109.373 41.7006 102.593Z" fill="#FFA1AD"/>
<path d="M311.727 303.622C311.625 296.056 312.815 288.563 316.556 284.101C321.128 278.648 328.833 280.445 333.407 285.896C337.98 291.347 340.144 299.366 341.938 307.111C342.675 300.625 343.469 293.931 346.127 288.372C348.783 282.812 353.83 278.65 358.722 280.085C363.057 281.355 366.11 286.577 367.685 292.011C371.218 304.203 368.975 318.277 363.891 329.492C357.944 342.616 347.495 352.358 338.986 362.56C329.443 349.922 318.318 338.586 313.99 321.174C312.821 316.465 311.812 310.019 311.727 303.622Z" fill="#FFA1AD"/>
<path d="M54.6776 187.592C54.1321 184.22 52.2637 180.981 49.6652 180.439C45.4421 179.559 41.3741 185.613 39.8417 190.112C36.9486 198.608 37.0954 207.425 35.6056 216.257C31.9694 206.896 30.4809 196.799 24.4012 189.279C19.9616 183.788 13.8642 181.349 12.8608 191.495C12.559 194.544 13.1022 197.622 13.747 200.578C17.6577 218.5 25.6081 233.987 35.4198 247.313C35.6009 247.559 35.834 247.824 36.0872 247.747C36.2434 247.699 36.3582 247.53 36.4623 247.371C44.2317 235.4 49.6238 221.239 52.5146 206.017C53.6138 200.225 55.6088 193.798 54.6989 187.742C54.693 187.69 54.6847 187.642 54.6776 187.592Z" fill="#FFA1AD"/>
<path d="M376.784 221.02C377.052 218.646 377.319 215.109 375.943 213.217C373.236 209.496 367.997 213.316 365.851 216.114C364.332 218.093 363.049 220.313 361.902 222.657C361.963 219.65 361.773 216.657 361.074 213.775C359.797 208.515 356.677 204.237 352.191 205.137C347.572 206.062 344.369 210.213 343.549 216.207C342.737 222.142 343.87 228.202 345.606 233.679C347.662 240.165 350.61 246.08 352.836 252.463C352.815 252.486 352.792 252.509 352.77 252.532C352.382 252.949 352.707 253.093 353.064 253.133C353.145 253.37 353.227 253.605 353.305 253.843C353.624 254.817 357.05 253.216 356.807 252.474C356.692 252.122 356.574 251.774 356.454 251.424C363.086 244.446 371.035 238.684 374.979 228.376C375.866 226.057 376.496 223.589 376.784 221.02ZM372.369 226.856C369.402 237.121 362.236 243.118 355.759 249.482C352.508 240.715 348.041 232.469 346.993 222.649C346.457 217.626 346.721 210.804 350.119 207.473C351.658 205.966 353.716 207.591 354.91 209.125C356.302 210.911 357.172 213.277 357.7 215.704C358.917 221.274 358.322 227.198 357.744 232.836C357.682 233.449 360.924 232.444 361.222 231.655C363.361 225.986 365.549 220.066 369.017 215.554C369.885 214.425 370.685 213.189 371.958 214.156C373.006 214.952 373.271 216.411 373.385 217.869C373.624 220.919 373.192 224.008 372.369 226.856Z" fill="#FFA1AD"/>
</svg>
