<svg width="350" height="420" viewBox="0 0 350 420" fill="none" xmlns="http://www.w3.org/2000/svg">
<path d="M50.1406 31.5846L8.74927 386.601L291.072 420L332.464 64.9835L50.1406 31.5846ZM259.297 379.474L48.9807 354.594L81.914 72.1121L292.231 96.9928L259.297 379.474Z" fill="#E2E8F0"/>
<path d="M32.3049 302.027C34.8514 297.63 41.2471 292.612 45.6939 290.192C50.1406 287.773 55.993 287.473 60.0478 290.512C63.4983 293.098 65.0937 297.653 64.9909 301.985C64.8882 306.316 63.3014 310.473 61.4029 314.361C54.2146 329.083 42.1111 341.317 27.5203 348.609C16.7283 340.475 5.93631 328.102 1.88844 315.152C0.609982 311.064 -0.271314 306.766 0.174578 302.504C0.620471 298.242 2.53815 293.995 5.97639 291.472C10.5189 288.14 16.953 288.401 22.0093 290.872C27.0674 293.34 28.9155 297.512 32.3049 302.027Z" fill="#CAD5E2"/>
<path d="M300.107 214.078C302.742 211.971 307.914 210.417 311.253 210.001C314.591 209.583 318.293 210.824 320.078 213.696C321.597 216.14 321.492 219.354 320.39 222.016C319.285 224.677 317.303 226.869 315.194 228.818C307.201 236.198 296.758 240.836 285.957 241.803C281.217 234.131 277.495 223.826 278.094 214.808C278.284 211.962 278.769 209.082 280.068 206.546C281.367 204.011 283.576 201.844 286.316 201.118C289.933 200.158 293.861 201.888 296.404 204.651C298.943 207.415 299.088 210.454 300.107 214.078Z" fill="#CAD5E2"/>
<path d="M34.7539 245.651C36.1752 242.579 40.1098 238.859 42.9105 236.982C45.7113 235.104 49.5728 234.545 52.445 236.31C54.8887 237.812 56.2229 240.733 56.418 243.61C56.613 246.488 55.8136 249.341 54.7912 252.036C50.9192 262.238 43.6403 271.093 34.4107 276.825C26.7626 272.098 18.8585 264.561 15.3889 256.227C14.2933 253.595 13.4486 250.8 13.4852 247.947C13.5217 245.095 14.5354 242.161 16.6604 240.277C19.4681 237.787 23.7511 237.566 27.2521 238.891C30.7548 240.217 32.2318 242.868 34.7539 245.651Z" fill="#CAD5E2"/>
<path d="M311.571 161.901C313.553 160.317 317.441 159.148 319.951 158.834C322.461 158.52 325.244 159.453 326.587 161.613C327.73 163.452 327.651 165.868 326.82 167.868C325.991 169.868 324.5 171.517 322.914 172.982C316.903 178.532 309.051 182.018 300.929 182.746C297.365 176.976 294.566 169.23 295.016 162.448C295.159 160.308 295.523 158.141 296.5 156.236C297.477 154.33 299.139 152.7 301.197 152.155C303.916 151.434 306.87 152.734 308.783 154.813C310.695 156.892 310.805 159.174 311.571 161.901Z" fill="#CAD5E2"/>
<path d="M328.752 261.459C335.012 261.189 341.185 259.104 346.342 255.518C348.202 254.225 350.094 252.397 349.996 250.121C349.876 247.314 346.591 245.545 343.834 245.975C341.077 246.405 338.814 248.321 336.707 250.162C337.583 248.249 337.334 245.945 337.328 243.84C337.325 241.733 336.154 239.473 334.138 238.917C332.589 238.491 330.896 239.168 329.747 240.298C328.599 241.428 327.912 242.945 327.379 244.472C325.653 249.419 327.677 256.325 328.752 261.459Z" fill="#E2E8F0"/>
<path d="M68.3613 283.815C73.9175 283.589 79.3919 281.764 83.9623 278.613C85.61 277.476 87.2856 275.869 87.195 273.865C87.0836 271.391 84.1626 269.826 81.7172 270.2C79.2717 270.574 77.2652 272.258 75.398 273.876C76.1714 272.191 75.9467 270.161 75.938 268.305C75.931 266.449 74.8877 264.454 73.0971 263.959C71.7229 263.58 70.2198 264.175 69.2026 265.168C68.1854 266.161 67.5793 267.498 67.1107 268.842C65.5884 273.2 67.3963 279.288 68.3613 283.815Z" fill="#E2E8F0"/>
<path d="M271.477 193.193C274.789 191.431 277.591 188.712 279.463 185.445C280.139 184.266 280.695 182.79 280.063 181.588C279.284 180.104 277.06 179.997 275.682 180.941C274.304 181.885 273.569 183.502 272.899 185.041C272.885 183.783 272.164 182.604 271.627 181.467C271.089 180.33 269.882 179.413 268.652 179.632C267.708 179.8 266.966 180.604 266.634 181.511C266.301 182.416 266.316 183.415 266.418 184.374C266.743 187.494 269.591 190.699 271.477 193.193Z" fill="#E2E8F0"/>
<path d="M287.139 276.332C291.173 271.951 299.771 267.851 305.479 266.224C311.186 264.598 317.965 265.763 321.839 270.288C325.134 274.139 325.805 279.767 324.589 284.701C323.372 289.635 320.5 293.989 317.338 297.953C305.367 312.964 288.399 323.86 269.837 328.453C259.541 316.357 250.32 299.405 248.97 283.531C248.545 278.52 248.625 273.368 250.217 268.601C251.809 263.834 255.084 259.464 259.663 257.46C265.71 254.813 273.015 256.771 278.18 260.903C283.344 265.035 284.401 270.289 287.139 276.332Z" fill="#CAD5E2"/>
<path d="M128.987 51.4791C127.284 51.4791 125.597 51.1668 124.037 50.5141C118.559 48.2262 115.192 41.7907 116.526 36.1692C117.077 33.848 118.676 31.0724 121.515 30.2477C124.526 29.3705 128.008 31.2566 129.119 34.3621C130.133 37.1921 129.156 40.6257 126.742 42.71C126.27 43.1171 125.552 43.0662 125.146 42.5872C124.739 42.1082 124.795 41.3889 125.268 40.9783C126.956 39.5203 127.681 37.064 126.989 35.1358C126.28 33.155 124.009 31.8952 122.142 32.4391C120.238 32.9918 119.13 35.0025 118.726 36.7008C117.639 41.2784 120.41 46.5314 124.903 48.4069C129.267 50.2299 134.827 48.8578 138.129 45.14C141.331 41.5328 142.345 36.0745 140.714 31.2285C140.514 30.632 140.829 29.9846 141.421 29.7828C142.014 29.5845 142.656 29.9004 142.857 30.4969C144.746 36.1061 143.552 42.4521 139.816 46.6594C137.071 49.7562 132.984 51.4791 128.987 51.4791Z" fill="#99A1AF"/>
<path d="M214.182 60.4621C209.704 60.4621 205.172 57.7988 202.742 53.4967C200.516 49.5508 200.063 44.3996 201.45 39.4291C197.128 37.9886 193.222 35.0814 190.403 31.1671C186.201 34.3638 181.236 36.0341 176.382 35.8569C175.375 40.6379 173.015 45.1242 169.445 48.4718C166.665 51.079 163.648 52.5282 160.722 52.6633C156.904 52.8212 153.445 50.6088 152.44 47.3559C151.869 45.4962 152.309 43.3118 153.591 41.6573C154.732 40.1853 156.331 39.3817 158.001 39.487C158.625 39.5221 159.104 40.0607 159.069 40.6888C159.032 41.3187 158.508 41.8222 157.874 41.7643C156.998 41.7117 156.052 42.1854 155.373 43.0609C154.553 44.1206 154.248 45.5418 154.601 46.6805C155.291 48.921 157.888 50.5369 160.614 50.386C163.625 50.2474 166.238 48.3613 167.902 46.8033C171.07 43.8329 173.184 39.8694 174.127 35.6376C168.21 34.6743 162.972 30.6811 160.882 25.4368C160.226 23.7876 159.586 21.2839 160.278 18.7258C160.959 16.2116 162.87 14.2518 165.148 13.7343C169.163 12.8202 172.569 16.259 174.273 19.4803C176.548 23.7894 177.328 28.7652 176.755 33.583C181 33.6778 185.457 32.0864 189.156 29.2511C185.979 23.8069 184.84 17.0626 185.953 10.2445C186.455 7.18116 187.317 4.94942 188.67 3.22123C190.496 0.887727 193.309 -0.340434 195.839 0.0824034C199.109 0.631565 201.201 3.60897 201.824 6.31618C202.517 9.31991 201.824 12.3412 201.143 14.6361C199.316 20.7927 196.21 25.9965 192.152 29.7038C194.685 33.2462 198.28 35.9393 202.176 37.2552C203.798 33.1146 206.668 29.081 210.937 24.9456C212.381 23.5455 213.987 22.1471 215.948 21.4085C218.307 20.5225 220.808 20.8225 222.475 22.198C225.5 24.6947 224.828 29.4617 222.657 32.6812C218.986 38.129 211.923 41.1801 205.099 40.273C204.608 40.2063 204.118 40.1239 203.632 40.0203C202.397 44.4171 202.773 48.9385 204.709 52.3668C207.079 56.5671 212.027 58.9638 216.223 57.9356C218.425 57.397 220.414 55.7548 221.548 53.5441C222.555 51.5791 222.718 49.5122 222.011 47.7244C221.78 47.1401 222.062 46.4769 222.642 46.2436C223.224 46.0067 223.88 46.2962 224.114 46.8805C225.056 49.2561 224.854 52.0686 223.561 54.5915C222.133 57.383 219.59 59.4621 216.76 60.1551C215.913 60.3621 215.048 60.4621 214.182 60.4621ZM204.381 37.8483C204.719 37.9149 205.059 37.9711 205.397 38.0149C211.393 38.8132 217.582 36.1552 220.785 31.4022C222.415 28.9862 222.954 25.5439 221.039 23.9648C220.01 23.1156 218.32 22.9507 216.741 23.5472C215.253 24.1069 213.973 25.1684 212.506 26.5913C208.565 30.4126 205.9 34.1006 204.381 37.8483ZM166.433 15.8712C166.174 15.8712 165.911 15.8993 165.649 15.959C164.2 16.2888 162.92 17.6415 162.464 19.3259C161.936 21.2734 162.457 23.263 162.986 24.5877C164.791 29.1143 169.351 32.5619 174.515 33.3918C175.051 29.0073 174.346 24.4736 172.275 20.5523C170.986 18.1153 168.753 15.8712 166.433 15.8712ZM194.812 2.27905C193.258 2.27905 191.605 3.15631 190.45 4.63361C189.344 6.04774 188.625 7.94788 188.19 10.6165C187.185 16.7643 188.153 22.8279 190.914 27.7545C194.528 24.3438 197.31 19.5978 198.973 13.9852C199.576 11.9587 200.192 9.31639 199.619 6.83201C199.083 4.50377 197.376 2.65276 195.467 2.33344C195.252 2.2966 195.033 2.27905 194.812 2.27905Z" fill="#99A1AF"/>
<path d="M256.141 65.5221C256.117 65.5221 256.094 65.5221 256.068 65.5221C250.207 65.4888 244.471 61.5797 242.118 56.0162C239.819 50.5719 240.723 43.9539 244.421 39.1571C244.806 38.6588 245.52 38.5711 246.009 38.9553C246.504 39.3413 246.593 40.0572 246.21 40.5554C243.054 44.6487 242.249 50.5018 244.2 55.1231C246.21 59.8761 251.095 63.215 256.08 63.243C256.099 63.243 256.119 63.243 256.138 63.243C261.161 63.243 266.075 59.7217 267.583 55.0284C268.236 52.9984 268.156 51.0439 267.362 49.6649C266.796 48.6806 265.758 47.9542 264.512 47.6717C263.269 47.391 262.02 47.5945 261.09 48.2367C260.158 48.8788 259.517 49.9754 259.327 51.2439C259.139 52.5159 259.435 53.7546 260.14 54.6442C260.531 55.1354 260.452 55.853 259.963 56.2478C259.475 56.6408 258.764 56.5601 258.371 56.0688C257.273 54.6863 256.807 52.8054 257.087 50.9088C257.369 49.0139 258.36 47.3542 259.809 46.3559C261.259 45.3575 263.159 45.0277 265.01 45.4488C266.865 45.8716 268.436 46.991 269.319 48.5209C270.45 50.4877 270.598 53.0476 269.734 55.732C267.912 61.4131 262.199 65.5221 256.141 65.5221Z" fill="#99A1AF"/>
<path d="M249.373 28.9441C248.791 27.93 247.344 27.5844 246.354 28.2914C245.45 28.9371 245.264 30.1302 245.626 31.1162C245.63 31.132 245.635 31.1478 245.64 31.1636C245.645 31.1794 245.652 31.1934 245.658 31.2092C245.858 31.8513 246.358 32.3882 247.014 32.6426C248.038 33.197 249.27 33.1742 249.9 31.9548C250.414 30.9653 250.202 29.6792 249.373 28.9441Z" fill="#99A1AF"/>
<path d="M143.701 20.9979C143.428 18.9872 140.831 18.4609 139.579 19.9066C138.332 21.347 139.35 23.6402 141.247 23.6788C141.869 23.6911 142.371 23.4437 142.743 23.07C143.386 22.6559 143.825 21.9137 143.701 20.9979Z" fill="#99A1AF"/>
<path d="M322.395 152.5C322.351 152.5 322.306 152.498 322.26 152.493C321.64 152.42 321.196 151.853 321.269 151.228L331.206 65.9853L289.843 61.092C289.223 61.0183 288.778 60.4516 288.852 59.827C288.925 59.2006 289.475 58.762 290.109 58.8269L332.598 63.8536C333.218 63.9272 333.662 64.494 333.589 65.1186L323.52 151.495C323.448 152.074 322.961 152.5 322.395 152.5Z" fill="#99A1AF"/>
<path d="M223.816 413.4C223.772 413.4 223.727 413.396 223.682 413.391L6.80205 387.733C6.18198 387.659 5.73783 387.092 5.81098 386.468L10.5468 345.851C10.62 345.225 11.1634 344.786 11.8044 344.851C12.4244 344.924 12.8686 345.491 12.7954 346.116L8.19199 385.601L223.946 411.126C224.567 411.199 225.011 411.766 224.938 412.392C224.871 412.971 224.384 413.4 223.816 413.4Z" fill="#99A1AF"/>
<path d="M266.548 389.743C266.505 389.743 266.46 389.742 266.416 389.736L91.7289 369.07C91.1089 368.996 90.6647 368.43 90.7379 367.805C90.811 367.179 91.3562 366.74 91.9954 366.805L265.556 387.338L270.915 341.359C270.988 340.735 271.542 340.289 272.173 340.359C272.793 340.433 273.237 341 273.164 341.624L267.672 388.735C267.635 389.035 267.485 389.31 267.25 389.498C267.048 389.657 266.801 389.743 266.548 389.743Z" fill="#99A1AF"/>
<path d="M57.7487 217.805C57.7069 217.805 57.6633 217.803 57.6215 217.798C56.9997 217.728 56.5538 217.163 56.6235 216.538L73.5413 64.6817C73.5744 64.3799 73.7241 64.1044 73.961 63.915C74.1979 63.7272 74.501 63.643 74.7971 63.6764L222.574 81.1583C223.194 81.232 223.638 81.7987 223.565 82.4233C223.492 83.0497 222.94 83.4953 222.307 83.4234L75.6628 66.0748L58.8703 216.791C58.8059 217.373 58.3165 217.805 57.7487 217.805Z" fill="#99A1AF"/>
<path d="M269.497 329.474C268.989 329.474 268.525 329.125 268.4 328.604C268.25 327.992 268.621 327.374 269.229 327.225C288.637 322.432 305.966 310.954 318.026 294.907C318.402 294.407 319.111 294.303 319.613 294.688C320.111 295.067 320.21 295.782 319.832 296.286C307.459 312.749 289.679 324.523 269.771 329.441C269.677 329.464 269.588 329.474 269.497 329.474Z" fill="#99A1AF"/>
<path d="M285.614 277.021C285.121 277.021 284.668 276.695 284.525 276.193C282.837 270.254 279.765 264.698 275.637 260.127C275.215 259.661 275.248 258.939 275.712 258.517C276.175 258.092 276.889 258.125 277.311 258.592C281.672 263.421 284.919 269.291 286.702 275.565C286.875 276.171 286.526 276.802 285.925 276.976C285.821 277.007 285.715 277.021 285.614 277.021Z" fill="#99A1AF"/>
<path d="M269.377 329.423C269.063 329.423 268.753 329.294 268.529 329.037C259.62 318.87 252.835 306.643 248.906 293.677C248.725 293.073 249.061 292.437 249.66 292.252C250.252 292.065 250.89 292.409 251.074 293.01C254.908 305.667 261.53 317.603 270.227 327.527C270.64 327.999 270.596 328.72 270.126 329.136C269.91 329.329 269.643 329.423 269.377 329.423Z" fill="#99A1AF"/>
<path d="M286.263 243.251C285.703 243.251 285.215 242.831 285.142 242.256C285.062 241.631 285.5 241.059 286.121 240.979C296.923 239.58 307.283 234.713 315.293 227.276C315.753 226.848 316.467 226.878 316.892 227.342C317.317 227.806 317.288 228.527 316.828 228.953C308.478 236.708 297.674 241.782 286.41 243.24C286.361 243.249 286.31 243.251 286.263 243.251Z" fill="#99A1AF"/>
<path d="M300.079 214.514C299.473 214.514 298.973 214.035 298.949 213.42C298.816 210.185 297.825 207.038 296.083 204.318C295.744 203.788 295.895 203.083 296.42 202.741C296.949 202.397 297.646 202.555 297.984 203.081C299.945 206.144 301.061 209.687 301.209 213.327C301.236 213.957 300.75 214.489 300.124 214.514C300.109 214.514 300.093 214.514 300.079 214.514Z" fill="#99A1AF"/>
<path d="M300.84 183.392C300.436 183.392 300.056 183.173 299.856 182.813C296.416 176.685 294.352 169.731 293.885 162.708C293.844 162.08 294.316 161.536 294.939 161.494C295.57 161.462 296.103 161.927 296.143 162.555C296.569 168.991 298.407 175.363 301.464 181.034C311.03 179.836 320.44 174.744 325.598 167.926C325.979 167.422 326.688 167.333 327.184 167.71C327.681 168.093 327.777 168.807 327.397 169.309C321.745 176.779 311.366 182.304 300.953 183.387C300.917 183.39 300.879 183.392 300.84 183.392Z" fill="#99A1AF"/>
<path d="M29.0792 350.253C28.8458 350.253 28.6142 350.181 28.4174 350.037C19.3881 343.481 12.8338 337.205 8.93221 331.385C8.58386 330.864 8.71971 330.153 9.23875 329.802C9.75606 329.448 10.4597 329.587 10.8098 330.109C14.4745 335.577 20.6386 341.51 29.1367 347.748C42.3062 339.722 53.1853 327.644 59.8197 313.661C60.0914 313.091 60.7672 312.852 61.3298 313.124C61.8941 313.396 62.1328 314.077 61.8645 314.645C54.9306 329.257 43.4906 341.847 29.654 350.095C29.4764 350.2 29.2778 350.253 29.0792 350.253Z" fill="#99A1AF"/>
<path d="M31.9793 303.701C31.5351 303.701 31.1136 303.434 30.9325 302.995C28.8075 297.811 24.6412 293.605 19.4995 291.456C18.9212 291.214 18.6478 290.547 18.8864 289.964C19.1285 289.382 19.7904 289.106 20.3669 289.347C26.0625 291.728 30.6747 296.384 33.0261 302.123C33.2647 302.706 32.9895 303.372 32.4112 303.613C32.2702 303.672 32.1238 303.701 31.9793 303.701Z" fill="#99A1AF"/>
<path d="M34.787 277.599C34.6006 277.599 34.4125 277.553 34.2418 277.458C23.1119 271.311 15.4255 262.147 12.5969 251.655C12.4314 251.046 12.7885 250.42 13.3929 250.255C13.9938 250.09 14.6173 250.449 14.781 251.056C17.3954 260.747 24.4548 269.261 34.6981 275.104C44.7238 267.54 51.2345 259.348 54.0544 250.746C54.2495 250.148 54.8852 249.823 55.4844 250.02C56.0783 250.216 56.3988 250.862 56.2038 251.46C53.1801 260.687 46.199 269.407 35.4576 277.376C35.259 277.525 35.0238 277.599 34.787 277.599Z" fill="#99A1AF"/>
<path d="M33.4041 245.875C32.9582 245.875 32.5349 245.609 32.3555 245.166C31.2983 242.561 28.9504 240.542 26.2297 239.898C25.6201 239.754 25.2439 239.14 25.3867 238.526C25.5295 237.912 26.1514 237.538 26.747 237.676C30.1679 238.485 33.1184 241.026 34.4509 244.302C34.6878 244.884 34.4108 245.551 33.8325 245.789C33.6932 245.847 33.5469 245.875 33.4041 245.875Z" fill="#99A1AF"/>
<path d="M298.128 308.397C297.797 308.397 297.466 308.25 297.242 307.968C296.852 307.475 296.933 306.757 297.423 306.364C303.85 301.206 309.356 295.054 313.785 288.082C314.231 287.382 314.668 286.666 315.07 285.933C315.372 285.382 316.063 285.18 316.61 285.489C317.155 285.794 317.354 286.489 317.051 287.04C316.624 287.813 316.163 288.571 315.694 289.312C311.131 296.497 305.458 302.834 298.835 308.148C298.626 308.315 298.377 308.397 298.128 308.397Z" fill="#A6A09B"/>
<path d="M318.234 281.318C318.197 281.318 318.16 281.316 318.124 281.313C317.502 281.252 317.046 280.694 317.107 280.067C317.336 277.681 316.481 274.516 314.06 273.202C313.512 272.904 313.304 272.212 313.6 271.658C313.897 271.105 314.581 270.895 315.135 271.195C318.484 273.012 319.67 277.071 319.359 280.288C319.303 280.878 318.808 281.318 318.234 281.318Z" fill="#A6A09B"/>
<path d="M307.353 230.595C306.964 230.595 306.588 230.395 306.376 230.034C306.057 229.492 306.236 228.792 306.774 228.472C309.775 226.69 312.447 224.251 314.504 221.419C314.872 220.91 315.581 220.798 316.086 221.172C316.591 221.544 316.701 222.258 316.331 222.765C314.095 225.844 311.188 228.497 307.924 230.436C307.746 230.544 307.549 230.595 307.353 230.595Z" fill="#A6A09B"/>
<path d="M317.234 218.277C316.662 218.277 316.173 217.844 316.109 217.258C316.039 216.598 315.598 215.908 315.011 215.543C314.746 215.378 314.341 215.214 313.921 215.37C313.329 215.591 312.682 215.291 312.463 214.699C312.245 214.11 312.543 213.454 313.128 213.233C314.123 212.859 315.215 212.989 316.203 213.603C317.389 214.342 318.216 215.649 318.361 217.014C318.427 217.64 317.976 218.201 317.356 218.27C317.316 218.275 317.276 218.277 317.234 218.277Z" fill="#A6A09B"/>
<path d="M315.762 173.218C315.306 173.218 314.875 172.937 314.705 172.482C314.482 171.895 314.774 171.235 315.36 171.01C319.026 169.602 321.896 166.185 322.666 162.31C322.79 161.69 323.398 161.292 324.001 161.417C324.614 161.54 325.011 162.141 324.889 162.759C323.967 167.386 320.543 171.461 316.166 173.142C316.034 173.193 315.898 173.218 315.762 173.218Z" fill="#A6A09B"/>
<path d="M51.6003 322.584C51.3791 322.584 51.1561 322.519 50.9593 322.382C50.4455 322.025 50.3148 321.316 50.6702 320.796C53.8994 316.075 57.2384 311.194 58.7642 305.648C58.9453 304.988 59.0986 304.313 59.2118 303.632C59.3163 303.011 59.9015 302.592 60.5146 302.693C61.1312 302.797 61.5492 303.385 61.4465 304.006C61.328 304.725 61.1591 305.483 60.9448 306.259C59.318 312.173 55.8693 317.215 52.5338 322.09C52.3144 322.412 51.9608 322.584 51.6003 322.584Z" fill="#A6A09B"/>
<path d="M59.8476 298.562C59.3982 298.562 58.9749 298.291 58.7955 297.846C57.9734 295.786 55.7579 293.738 53.3177 294.031C52.7133 294.089 52.135 293.653 52.0654 293.028C51.994 292.402 52.4398 291.837 53.0616 291.765C56.6601 291.351 59.7344 294.082 60.8961 296.995C61.1295 297.579 60.8473 298.242 60.2673 298.477C60.1315 298.535 59.9886 298.562 59.8476 298.562Z" fill="#A6A09B"/>
<path d="M49.6233 254.158C49.4457 254.158 49.2663 254.116 49.0973 254.027C48.5452 253.734 48.3327 253.044 48.6235 252.486C49.8184 250.2 51.0533 247.837 51.3076 245.317C51.5236 243.187 50.8426 240.514 48.8378 239.345C48.2961 239.029 48.1132 238.331 48.4267 237.787C48.7402 237.243 49.4335 237.055 49.9751 237.371C52.5059 238.849 53.915 242.059 53.5614 245.549C53.2618 248.509 51.8632 251.186 50.6283 253.55C50.4245 253.937 50.0309 254.158 49.6233 254.158Z" fill="#A6A09B"/>
<path d="M36.2588 220.56C36.2153 220.56 36.1682 220.558 36.123 220.553C35.5029 220.479 35.0605 219.91 35.1336 219.284L35.6126 215.233C35.6858 214.608 36.2362 214.166 36.872 214.236C37.492 214.31 37.9344 214.878 37.8613 215.505L37.3823 219.556C37.3126 220.133 36.8232 220.56 36.2588 220.56ZM37.3579 211.282C37.3143 211.282 37.2673 211.28 37.222 211.275C36.602 211.201 36.1596 210.633 36.2327 210.006L37.0583 203.037C37.1315 202.413 37.6784 201.969 38.3176 202.041C38.9377 202.114 39.3801 202.683 39.3069 203.309L38.4813 210.278C38.4116 210.857 37.9222 211.282 37.3579 211.282ZM38.8018 199.088C38.7565 199.088 38.7113 199.086 38.666 199.081C38.0459 199.007 37.6017 198.439 37.6766 197.812L38.504 190.843C38.5789 190.217 39.1501 189.778 39.7632 189.847C40.3833 189.921 40.8275 190.489 40.7526 191.115L39.9253 198.084C39.8538 198.662 39.3661 199.088 38.8018 199.088ZM40.2475 186.892C40.2039 186.892 40.1569 186.89 40.1116 186.885C39.4915 186.812 39.0492 186.243 39.1223 185.617L39.9479 178.648C40.0211 178.023 40.5714 177.574 41.2072 177.651C41.8273 177.725 42.2697 178.293 42.1965 178.92L41.3709 185.889C41.3012 186.466 40.8118 186.892 40.2475 186.892ZM41.6914 174.697C41.6479 174.697 41.6008 174.695 41.5556 174.69C40.9355 174.616 40.493 174.047 40.5662 173.421L41.3918 166.452C41.4649 165.828 42.0102 165.377 42.6511 165.456C43.2712 165.529 43.7136 166.098 43.6404 166.724L42.8148 173.693C42.7452 174.272 42.2558 174.697 41.6914 174.697ZM43.1353 162.503C43.09 162.503 43.0447 162.501 42.9994 162.496C42.3794 162.422 41.9352 161.854 42.0101 161.227L42.8375 154.258C42.9124 153.632 43.4819 153.19 44.0968 153.262C44.7168 153.335 45.161 153.904 45.0861 154.53L44.2588 161.499C44.1874 162.076 43.6996 162.503 43.1353 162.503ZM44.5793 150.305C44.534 150.305 44.4887 150.304 44.4434 150.298C43.8233 150.225 43.3792 149.656 43.4541 149.03L44.2814 142.061C44.3563 141.435 44.9294 140.999 45.5407 141.064C46.1608 141.138 46.6049 141.707 46.53 142.333L45.7027 149.302C45.633 149.881 45.1436 150.305 44.5793 150.305ZM46.0249 138.112C45.9814 138.112 45.9343 138.11 45.889 138.105C45.269 138.031 44.8266 137.462 44.8997 136.836L45.7253 129.867C45.7985 129.243 46.3559 128.799 46.9847 128.871C47.6047 128.944 48.0471 129.513 47.974 130.139L47.1484 137.108C47.0804 137.685 46.5892 138.112 46.0249 138.112ZM47.4688 125.916C47.4253 125.916 47.3783 125.914 47.333 125.909C46.7129 125.835 46.2705 125.267 46.3437 124.64L47.1693 117.672C47.2424 117.047 47.7945 116.6 48.4285 116.675C49.0486 116.749 49.491 117.317 49.4179 117.943L48.5923 124.912C48.5243 125.49 48.0332 125.916 47.4688 125.916ZM48.9128 113.72C48.8675 113.72 48.8222 113.719 48.7769 113.713C48.1569 113.64 47.7127 113.071 47.7876 112.445L48.6149 105.476C48.6898 104.85 49.2594 104.413 49.8742 104.479C50.4943 104.553 50.9384 105.121 50.8636 105.748L50.0362 112.717C49.9665 113.296 49.4789 113.72 48.9128 113.72ZM50.3584 101.527C50.3149 101.527 50.2678 101.525 50.2226 101.519C49.6025 101.446 49.1601 100.877 49.2333 100.251L50.0588 93.282C50.132 92.6574 50.6876 92.2188 51.3181 92.2855C51.9382 92.3592 52.3807 92.9276 52.3075 93.554L51.4819 100.523C51.414 101.1 50.9245 101.527 50.3584 101.527ZM51.8041 89.3309C51.7606 89.3309 51.7135 89.3291 51.6683 89.3239C51.0482 89.2502 50.6057 88.6817 50.6789 88.0554L51.5045 81.0864C51.5776 80.4618 52.1298 80.0215 52.7638 80.0899C53.3839 80.1636 53.8263 80.732 53.7531 81.3584L52.9275 88.3273C52.8579 88.9045 52.3685 89.3309 51.8041 89.3309ZM53.248 77.1353C53.2045 77.1353 53.1574 77.1335 53.1122 77.1283C52.4921 77.0546 52.0497 76.4861 52.1228 75.8598L52.9484 68.8908C53.0216 68.2662 53.5702 67.8241 54.2077 67.8943C54.8278 67.968 55.2702 68.5364 55.1971 69.1628L54.3715 76.1317C54.3018 76.7107 53.8123 77.1353 53.248 77.1353ZM54.692 64.9414C54.6467 64.9414 54.6014 64.9397 54.5561 64.9344C53.936 64.8607 53.4919 64.2923 53.5668 63.6659L54.3941 56.697C54.469 56.0706 55.0386 55.6267 55.6534 55.7004C56.2735 55.7741 56.7176 56.3426 56.6427 56.9689L55.8154 63.9379C55.744 64.5151 55.2563 64.9414 54.692 64.9414ZM56.1376 52.7458C56.0941 52.7458 56.047 52.7441 56.0017 52.7388C55.3817 52.6651 54.9393 52.0967 55.0124 51.4703L55.838 44.5014C55.9112 43.8768 56.4616 43.4294 57.0974 43.5048C57.7174 43.5785 58.1598 44.147 58.0867 44.7733L57.2611 51.7422C57.1914 52.3195 56.7019 52.7458 56.1376 52.7458Z" fill="#99A1AF"/>
<path d="M284.347 411.617C284.302 411.617 284.255 411.614 284.208 411.608L282.764 411.428C282.144 411.349 281.703 410.78 281.78 410.154C281.858 409.531 282.412 409.096 283.045 409.162L283.339 409.199L283.776 404.836C283.839 404.209 284.408 403.762 285.016 403.816C285.638 403.88 286.091 404.438 286.028 405.066L285.476 410.589C285.445 410.894 285.295 411.173 285.056 411.364C284.853 411.531 284.603 411.617 284.347 411.617ZM277.722 410.789C277.675 410.789 277.628 410.785 277.581 410.78L270.666 409.915C270.046 409.836 269.605 409.268 269.682 408.641C269.76 408.017 270.34 407.585 270.946 407.65L277.861 408.515C278.481 408.594 278.922 409.162 278.845 409.789C278.772 410.366 278.284 410.789 277.722 410.789ZM265.62 409.273C265.573 409.273 265.526 409.269 265.479 409.264L258.566 408.399C257.946 408.32 257.505 407.752 257.582 407.125C257.66 406.501 258.235 406.067 258.846 406.134L265.759 406.999C266.379 407.078 266.82 407.647 266.743 408.273C266.672 408.85 266.184 409.273 265.62 409.273ZM253.522 407.759C253.475 407.759 253.428 407.755 253.381 407.75L246.466 406.885C245.846 406.806 245.405 406.238 245.482 405.611C245.56 404.987 246.144 404.564 246.746 404.62L253.661 405.485C254.281 405.564 254.722 406.132 254.645 406.759C254.574 407.336 254.084 407.759 253.522 407.759ZM241.423 406.245C241.376 406.245 241.329 406.241 241.282 406.236L234.367 405.371C233.747 405.292 233.307 404.724 233.383 404.097C233.462 403.473 234.04 403.037 234.648 403.106L241.563 403.971C242.183 404.05 242.623 404.618 242.547 405.245C242.474 405.822 241.986 406.245 241.423 406.245ZM229.322 404.731C229.275 404.731 229.227 404.727 229.18 404.722L222.267 403.857C221.647 403.78 221.207 403.209 221.283 402.585C221.362 401.958 221.945 401.523 222.548 401.593L229.461 402.458C230.081 402.536 230.522 403.106 230.445 403.73C230.374 404.308 229.886 404.731 229.322 404.731ZM217.223 403.215C217.176 403.215 217.129 403.213 217.082 403.206L210.167 402.341C209.547 402.264 209.107 401.694 209.183 401.069C209.262 400.443 209.843 400.007 210.448 400.078L217.363 400.943C217.983 401.02 218.423 401.59 218.347 402.215C218.275 402.794 217.786 403.215 217.223 403.215ZM205.125 401.702C205.078 401.702 205.031 401.701 204.984 401.694L198.069 400.829C197.449 400.751 197.008 400.181 197.085 399.557C197.163 398.93 197.74 398.492 198.349 398.565L205.264 399.43C205.884 399.507 206.325 400.078 206.248 400.702C206.175 401.279 205.687 401.702 205.125 401.702ZM285.426 400.855C285.387 400.855 285.349 400.853 285.311 400.85C284.691 400.786 284.236 400.227 284.299 399.6L284.995 392.617C285.058 391.991 285.631 391.547 286.236 391.596C286.856 391.659 287.31 392.219 287.247 392.846L286.551 399.828C286.493 400.416 286 400.855 285.426 400.855ZM193.027 400.186C192.98 400.186 192.933 400.185 192.885 400.178L185.971 399.313C185.351 399.235 184.91 398.665 184.987 398.041C185.065 397.416 185.647 396.976 186.251 397.049L193.166 397.914C193.786 397.991 194.227 398.562 194.15 399.186C194.077 399.765 193.589 400.186 193.027 400.186ZM286.648 388.635C286.612 388.635 286.572 388.633 286.533 388.629C285.913 388.566 285.459 388.007 285.521 387.38L286.218 380.397C286.281 379.771 286.857 379.331 287.458 379.376C288.078 379.439 288.533 379.999 288.47 380.625L287.773 387.608C287.714 388.196 287.221 388.635 286.648 388.635ZM287.869 376.415C287.833 376.415 287.793 376.413 287.754 376.409C287.134 376.346 286.68 375.786 286.742 375.16L287.439 368.179C287.5 367.554 288.043 367.098 288.679 367.158C289.299 367.221 289.754 367.781 289.691 368.407L288.994 375.388C288.935 375.976 288.442 376.415 287.869 376.415ZM289.09 364.196C289.052 364.196 289.014 364.194 288.975 364.191C288.354 364.128 287.901 363.57 287.963 362.942L288.662 355.96C288.725 355.334 289.292 354.876 289.902 354.941C290.524 355.004 290.977 355.562 290.914 356.19L290.215 363.171C290.156 363.757 289.663 364.196 289.09 364.196ZM290.311 351.976C290.273 351.976 290.235 351.974 290.196 351.971C289.574 351.908 289.122 351.35 289.184 350.721L289.883 343.739C289.945 343.11 290.517 342.658 291.123 342.719C291.745 342.782 292.198 343.34 292.135 343.968L291.436 350.951C291.377 351.539 290.884 351.976 290.311 351.976ZM291.534 339.756C291.497 339.756 291.457 339.754 291.419 339.75C290.799 339.687 290.344 339.128 290.407 338.501L291.104 331.518C291.165 330.892 291.706 330.443 292.344 330.497C292.964 330.56 293.419 331.12 293.356 331.746L292.659 338.729C292.602 339.317 292.107 339.756 291.534 339.756Z" fill="#99A1AF"/>
<path d="M305.562 53.0686C303.953 53.0686 302.335 52.7037 300.886 52.0089C300.321 51.7387 300.079 51.0579 300.347 50.4895C300.616 49.9192 301.29 49.6789 301.854 49.9473C303.714 50.8351 305.952 51.0299 307.832 50.4561C308.438 50.2754 309.065 50.614 309.246 51.2158C309.427 51.8176 309.089 52.4563 308.492 52.6387C307.56 52.923 306.574 53.0686 305.562 53.0686ZM312.292 49.6368C312.073 49.6368 311.85 49.5719 311.655 49.4368C311.138 49.0806 311.007 48.37 311.361 47.8507C312.106 46.7559 312.515 45.4856 312.515 44.2732C312.515 43.7802 312.447 43.2995 312.315 42.8433C312.261 42.6608 312.191 42.4784 312.113 42.3029C311.855 41.7292 312.106 41.0537 312.676 40.794C313.242 40.5344 313.917 40.787 314.174 41.3607C314.295 41.6309 314.4 41.9099 314.485 42.1959C314.68 42.8644 314.781 43.5644 314.781 44.275C314.781 45.9435 314.229 47.6717 313.228 49.142C313.008 49.4648 312.653 49.6368 312.292 49.6368ZM297.601 48.6069C297.197 48.6069 296.803 48.3876 296.601 48.0033C296.538 47.884 296.477 47.7647 296.42 47.6419C295.669 46.0576 295.38 44.3627 295.099 42.7257C294.997 42.1275 294.896 41.5274 294.77 40.9361C294.64 40.3203 295.028 39.7133 295.641 39.5817C296.256 39.4466 296.853 39.8413 296.984 40.4589C297.116 41.08 297.224 41.7099 297.331 42.3398C297.595 43.8943 297.848 45.361 298.465 46.6664L298.597 46.9331C298.891 47.4875 298.684 48.1788 298.13 48.4753C297.961 48.5648 297.778 48.6069 297.601 48.6069ZM282.221 48.2419C282.184 48.2419 282.144 48.2402 282.106 48.2367C282.102 48.2367 282.05 48.2314 282.047 48.2297C279.373 47.884 277.041 45.833 276.149 43.117C275.954 42.5187 276.274 41.8748 276.868 41.6766C277.461 41.48 278.103 41.8029 278.298 42.4012C278.922 44.3031 280.507 45.7312 282.242 45.9576C282.858 46.0365 283.356 46.6067 283.285 47.2278C283.217 47.8086 282.782 48.2419 282.221 48.2419ZM286.969 46.4664C286.669 46.4664 286.37 46.3471 286.147 46.1102C285.717 45.654 285.736 44.9312 286.189 44.4978C286.958 43.7644 287.54 42.824 287.828 41.852C288.016 41.2081 288.111 40.5256 288.111 39.8203C288.111 39.5641 288.099 39.308 288.075 39.05C288.017 38.4237 288.474 37.8675 289.097 37.8079C289.712 37.7552 290.271 38.2096 290.33 38.836C290.362 39.1641 290.376 39.4922 290.376 39.8185C290.376 40.7414 290.249 41.6432 289.996 42.4977C289.592 43.8679 288.812 45.1312 287.744 46.1523C287.528 46.3628 287.248 46.4664 286.969 46.4664ZM306.952 39.7273C306.571 39.7273 306.207 39.5325 305.996 39.1974C305.731 38.7746 305.768 38.2289 306.09 37.8482L306.842 36.9639C307.248 36.485 307.968 36.4323 308.438 36.8394C308.598 36.978 308.708 37.1499 308.772 37.3359C309.025 37.3657 309.274 37.4096 309.523 37.471C310.133 37.6184 310.504 38.236 310.357 38.8483C310.209 39.4624 309.589 39.8343 308.99 39.6869C308.4 39.5431 307.797 39.5413 307.248 39.6887C307.149 39.715 307.048 39.7273 306.952 39.7273ZM277.598 38.7746C277.44 38.7746 277.281 38.7413 277.128 38.6711C276.56 38.4097 276.308 37.7342 276.567 37.1604C277.304 35.534 278.527 34.0708 280.012 33.0444C280.685 32.5812 281.42 32.2039 282.202 31.9215C282.792 31.7074 283.437 32.018 283.649 32.611C283.86 33.204 283.552 33.8567 282.963 34.069C282.365 34.2848 281.803 34.5725 281.292 34.9252C280.143 35.7217 279.195 36.8499 278.629 38.1061C278.439 38.5255 278.027 38.7746 277.598 38.7746ZM262.234 37.7096C262.1 37.7096 261.964 37.685 261.832 37.6342C261.246 37.4096 260.954 36.7499 261.177 36.1621C262.055 33.8462 263.546 31.7302 265.489 30.0406C265.961 29.6283 266.677 29.6827 267.087 30.1582C267.494 30.6354 267.442 31.3565 266.97 31.7671C265.31 33.2093 264.038 35.0112 263.295 36.9745C263.121 37.4289 262.69 37.7096 262.234 37.7096ZM293.715 37.1148C293.399 37.1148 293.086 36.9832 292.861 36.7236C291.794 35.4884 290.287 34.5374 288.62 34.0216C288.62 34.4006 288.432 34.7708 288.091 34.9866C287.558 35.3235 286.861 35.1621 286.53 34.6287C286.422 34.4585 286.314 34.2918 286.202 34.1286C285.121 32.5706 283.637 31.2319 281.911 30.2599C281.366 29.9529 281.171 29.2564 281.475 28.7072C281.78 28.158 282.466 27.9598 283.017 28.2686C284.595 29.1581 286.004 30.3143 287.154 31.6513C287.382 31.5144 287.655 31.4548 287.941 31.5074C290.566 31.9969 292.919 33.3163 294.57 35.2235C294.979 35.6989 294.93 36.4183 294.46 36.8323C294.244 37.0218 293.979 37.1148 293.715 37.1148ZM270.696 29.3739C270.236 29.3739 269.804 29.0897 269.635 28.63C269.417 28.0387 269.717 27.3826 270.302 27.1632C271.387 26.7579 272.503 26.4825 273.622 26.3439C274.98 26.1755 276.36 26.2018 277.729 26.4193C278.345 26.5176 278.77 27.1001 278.673 27.7229C278.574 28.344 277.999 28.7721 277.379 28.6739C276.213 28.4896 275.045 28.4651 273.897 28.6072C272.953 28.723 272.009 28.9563 271.091 29.302C270.96 29.3511 270.828 29.3739 270.696 29.3739Z" fill="#99A1AF"/>
<path d="M107.734 32.3952C107.258 32.3952 106.814 32.0899 106.658 31.6092C106.464 31.0109 106.788 30.367 107.382 30.1705C108.863 29.6827 110.049 28.6371 110.559 27.3721C110.726 26.9615 110.838 26.5264 110.895 26.0755C110.974 25.4509 111.547 25.0052 112.162 25.0877C112.782 25.1666 113.22 25.7386 113.142 26.3632C113.06 27.0106 112.897 27.6387 112.66 28.2318C111.899 30.1108 110.192 31.646 108.088 32.3391C107.969 32.3759 107.849 32.3952 107.734 32.3952ZM102.718 31.8496C102.498 31.8496 102.275 31.7846 102.08 31.6495C101.8 31.4566 101.535 31.2372 101.288 30.9881C100.041 29.7371 99.3543 27.9633 99.3543 25.9913C99.3543 25.3965 99.417 24.7894 99.5407 24.1894C99.6696 23.5718 100.274 23.177 100.88 23.3051C101.493 23.4332 101.885 24.0367 101.76 24.6543C101.666 25.1035 101.62 25.5526 101.62 25.993C101.62 27.3545 102.07 28.5528 102.887 29.3722C103.035 29.5196 103.193 29.6529 103.36 29.7705C103.878 30.1266 104.008 30.8355 103.655 31.3565C103.434 31.6776 103.078 31.8496 102.718 31.8496ZM84.1347 27.8037C83.9745 27.8037 83.8143 27.7984 83.6558 27.7896C83.0339 27.751 82.5585 27.2089 82.5985 26.5808C82.6368 25.9527 83.1506 25.5035 83.7986 25.514C84.1696 25.5403 84.5406 25.5228 84.9098 25.4684C86.3659 25.2508 87.7576 24.5876 89.4175 23.3139C89.9157 22.9366 90.6246 23.0296 91.0043 23.5314C91.3822 24.0332 91.2847 24.7491 90.7883 25.1298C89.5586 26.072 87.6444 27.365 85.2408 27.7247C84.8733 27.7756 84.5022 27.8037 84.1347 27.8037ZM129.198 25.907C128.651 25.907 128.168 25.507 128.081 24.9456C127.771 22.9805 126.728 21.1453 125.059 19.6382C124.593 19.2171 124.554 18.4977 124.97 18.0275C125.39 17.5591 126.104 17.5205 126.569 17.9398C128.6 19.7733 129.933 22.1348 130.316 24.5894C130.415 25.2105 129.992 25.7965 129.375 25.8948C129.316 25.9018 129.257 25.907 129.198 25.907ZM79.0331 25.7175C78.7579 25.7175 78.481 25.6175 78.2632 25.414C76.6207 23.8788 75.715 21.905 75.7115 19.8575C75.7272 19.0978 75.8335 18.4732 76.0373 17.8679C76.2341 17.2713 76.8768 16.9485 77.4708 17.1503C78.063 17.3503 78.3817 17.9977 78.1831 18.5942C78.056 18.9785 77.9863 19.375 77.9776 19.7698C77.9776 21.2611 78.6273 22.6401 79.8047 23.7402C80.2628 24.1683 80.2889 24.8894 79.8639 25.3509C79.641 25.5947 79.3379 25.7175 79.0331 25.7175ZM110.85 22.3296C110.469 22.3296 110.098 22.1366 109.883 21.7857C109.162 20.6031 108.126 19.6329 106.966 19.0539C106.887 19.0153 106.809 18.9785 106.731 18.9416C105.668 19.4908 104.773 20.1066 104.026 20.7997C103.573 21.2278 102.852 21.1997 102.427 20.7347C102.004 20.2715 102.03 19.5504 102.491 19.1241C103.024 18.6276 103.616 18.1679 104.268 17.7415C104.174 17.5275 104.142 17.2836 104.195 17.0362C104.327 16.4186 104.937 16.0309 105.538 16.159C105.912 16.2397 106.278 16.3397 106.635 16.4572C107.349 16.1362 108.117 15.8414 108.943 15.5695L109.667 17.7293C109.551 17.7679 109.436 17.8065 109.322 17.8451C110.301 18.5767 111.158 19.5171 111.811 20.5874C112.139 21.1242 111.973 21.826 111.439 22.1559C111.256 22.277 111.05 22.3296 110.85 22.3296ZM94.0889 21.9576C93.765 21.9576 93.4445 21.819 93.2198 21.5488C92.8192 21.0663 92.8836 20.3452 93.3626 19.9417C94.2805 19.1697 95.0626 18.5855 95.8168 18.103C97.0586 17.3082 98.4138 16.7134 99.8438 16.3414C100.45 16.1748 101.065 16.5485 101.223 17.1573C101.382 17.7679 101.018 18.3907 100.412 18.5469C99.2289 18.8574 98.0584 19.3697 97.0308 20.0277C96.3584 20.4558 95.6565 20.9839 94.817 21.6909C94.6027 21.8717 94.345 21.9576 94.0889 21.9576ZM121.321 17.3169C121.231 17.3169 121.14 17.3064 121.048 17.2819C120.966 17.2626 120.879 17.2292 120.804 17.1924C119.087 16.645 116.782 16.4309 114.551 16.6625C113.947 16.7327 113.374 16.2713 113.309 15.6431C113.247 15.0168 113.7 14.4571 114.32 14.3939C116.87 14.1308 119.425 14.3536 121.661 15.0887C122.241 15.28 122.572 15.8993 122.405 16.4906C122.262 16.9889 121.813 17.3169 121.321 17.3169ZM85.4724 15.6817C85.2773 15.6817 85.0788 15.6309 84.8977 15.5238C83.8091 14.8747 82.3773 14.8799 81.0414 15.5028C80.4735 15.7642 79.7995 15.5203 79.5382 14.9484C79.2769 14.3764 79.5225 13.6991 80.0886 13.4342C82.1004 12.4956 84.3246 12.5342 86.0507 13.5605C86.5889 13.8816 86.7666 14.5817 86.4496 15.1221C86.2371 15.4835 85.8591 15.6817 85.4724 15.6817Z" fill="#99A1AF"/>
<path d="M267.189 245.245C264.85 245.245 265.036 248.893 267.362 248.893C269.701 248.893 269.516 245.245 267.189 245.245Z" fill="#99A1AF"/>
<path d="M258.994 248.547C256.657 248.547 256.841 252.195 259.167 252.195C261.506 252.195 261.321 248.547 258.994 248.547Z" fill="#99A1AF"/>
<path d="M262.272 236.164C259.933 236.164 260.119 239.812 262.445 239.812C264.784 239.813 264.599 236.164 262.272 236.164Z" fill="#99A1AF"/>
<path d="M322.098 197.365C319.761 197.365 319.946 201.013 322.271 201.013C324.608 201.014 324.424 197.365 322.098 197.365Z" fill="#99A1AF"/>
<path d="M330.293 205.62C327.954 205.62 328.141 209.268 330.466 209.268C332.803 209.269 332.619 205.62 330.293 205.62Z" fill="#99A1AF"/>
<path d="M332.751 196.54C330.412 196.54 330.598 200.188 332.924 200.188C335.263 200.188 335.078 196.54 332.751 196.54Z" fill="#99A1AF"/>
<path d="M13.9572 277.441C11.618 277.441 11.8043 281.088 14.1296 281.088C16.4688 281.088 16.2842 277.441 13.9572 277.441Z" fill="#99A1AF"/>
<path d="M1.66554 284.045C-0.673656 284.045 -0.487288 287.692 1.83797 287.692C4.17717 287.692 3.9908 284.045 1.66554 284.045Z" fill="#99A1AF"/>
<path d="M4.94349 272.488C2.6043 272.488 2.79067 276.135 5.11593 276.135C7.45512 276.135 7.26875 272.488 4.94349 272.488Z" fill="#99A1AF"/>
<path d="M22.1539 224.607H21.3335C18.9943 224.607 19.1807 228.255 21.5059 228.255H22.3263C24.6638 228.257 24.4792 224.607 22.1539 224.607Z" fill="#99A1AF"/>
<path d="M12.2328 231.473V232.299C12.2328 234.654 15.8539 234.468 15.8539 232.125V231.299C15.8557 228.943 12.2328 229.129 12.2328 231.473Z" fill="#99A1AF"/>
<path d="M13.8718 222.391V223.218C13.8718 225.574 17.493 225.386 17.493 223.044V222.218C17.4947 219.861 13.8718 220.047 13.8718 222.391Z" fill="#99A1AF"/>
<path d="M318.277 141.877C318.234 141.877 318.19 141.875 318.146 141.87C317.526 141.798 317.081 141.233 317.152 140.606L324.03 80.1547C324.102 79.5284 324.669 79.095 325.284 79.1512C325.904 79.2231 326.35 79.788 326.279 80.4144L319.401 140.866C319.333 141.447 318.843 141.877 318.277 141.877Z" fill="white"/>
<path d="M313.734 129.483C313.693 129.483 313.647 129.481 313.604 129.476C312.984 129.404 312.538 128.839 312.609 128.213L316.999 89.6414C317.07 89.0168 317.622 88.5817 318.253 88.6379C318.873 88.7098 319.319 89.2748 319.247 89.9011L314.858 128.472C314.792 129.055 314.304 129.483 313.734 129.483Z" fill="white"/>
<path d="M327.009 259.09C326.476 259.09 326.012 258.715 325.901 258.185C325.748 257.459 325.577 256.697 325.401 255.911C324.323 251.111 322.98 245.137 324.568 240.584C325.065 239.157 325.816 237.345 327.212 235.973C328.768 234.443 330.872 233.806 332.694 234.308C335.329 235.036 336.712 237.887 336.717 240.329C336.717 240.693 336.726 241.063 336.735 241.436C336.752 242.17 336.769 242.944 336.729 243.726C338.231 242.615 339.95 241.647 341.918 241.342C343.832 241.042 345.956 241.622 347.45 242.856C348.638 243.838 349.324 245.154 349.385 246.565C349.483 248.823 348.087 250.97 345.243 252.95C339.946 256.634 333.488 258.813 327.057 259.09C327.042 259.09 327.024 259.09 327.009 259.09ZM331.431 236.42C330.541 236.42 329.566 236.847 328.796 237.603C327.737 238.647 327.122 240.149 326.707 241.338C325.335 245.274 326.598 250.891 327.611 255.406C327.716 255.864 327.815 256.315 327.913 256.753C333.606 256.33 339.271 254.33 343.959 251.069C346.119 249.565 347.187 248.081 347.124 246.66C347.084 245.695 346.499 245.016 346.015 244.616C345.02 243.793 343.543 243.386 342.267 243.593C339.934 243.956 337.997 245.514 335.707 247.514C335.306 247.867 334.714 247.888 334.286 247.565C333.861 247.242 333.714 246.663 333.937 246.175C334.549 244.84 334.51 243.135 334.474 241.487C334.465 241.098 334.456 240.714 334.455 240.333C334.453 238.792 333.626 236.929 332.098 236.506C331.884 236.448 331.659 236.42 331.431 236.42Z" fill="#99A1AF"/>
<path d="M66.6178 281.446C66.0848 281.446 65.6233 281.073 65.5101 280.545C65.3742 279.902 65.2192 279.229 65.0607 278.534C64.0905 274.288 62.8852 269.002 64.2995 264.956C64.7437 263.685 65.416 262.068 66.6718 260.841C68.0844 259.462 70.0004 258.896 71.6533 259.352C74.0534 260.013 75.3179 262.591 75.3266 264.793C75.3266 265.112 75.3354 265.436 75.3441 265.765C75.358 266.331 75.3737 266.926 75.3545 267.528C76.6487 266.607 78.1205 265.821 79.8048 265.564C81.5448 265.3 83.4712 265.828 84.8263 266.949C85.9009 267.838 86.5262 269.03 86.5837 270.305C86.676 272.349 85.4219 274.279 82.8581 276.046C78.1448 279.295 72.3935 281.213 66.6614 281.446C66.6492 281.446 66.6335 281.446 66.6178 281.446ZM70.4898 261.478C69.7356 261.478 68.9065 261.84 68.2499 262.48C67.3337 263.377 66.799 264.678 66.4384 265.714C65.2401 269.137 66.3653 274.065 67.2693 278.023C67.3546 278.393 67.4382 278.757 67.5183 279.113C72.5137 278.737 77.476 276.995 81.5831 274.163C83.4555 272.872 84.3786 271.609 84.3246 270.409C84.2881 269.612 83.7969 269.047 83.3928 268.712C82.5324 268.001 81.2539 267.652 80.1496 267.821C77.9463 268.158 75.9798 269.863 74.3983 271.233C73.9959 271.582 73.402 271.6 72.9788 271.279C72.5538 270.954 72.4092 270.377 72.6339 269.889C73.1599 268.744 73.1216 267.258 73.0868 265.822C73.0781 265.48 73.0693 265.138 73.0676 264.803C73.0641 263.494 72.3587 261.91 71.0611 261.552C70.8782 261.503 70.6866 261.478 70.4898 261.478Z" fill="#99A1AF"/>
<path d="M269.737 190.826C269.394 190.826 269.056 190.668 268.837 190.377C268.57 190.024 268.285 189.657 267.99 189.28C266.151 186.922 263.864 183.987 263.549 180.988C263.45 180.039 263.392 178.797 263.829 177.607C264.333 176.23 265.439 175.232 266.71 175.002C268.55 174.676 270.21 175.995 270.906 177.47L271.195 178.06C271.268 178.206 271.342 178.353 271.415 178.504C271.903 177.744 272.507 177.035 273.303 176.49C274.364 175.762 275.795 175.5 277.041 175.814C278.06 176.069 278.87 176.684 279.322 177.548C280.028 178.892 279.819 180.56 278.702 182.508C276.741 185.936 273.744 188.841 270.267 190.694C270.098 190.782 269.917 190.826 269.737 190.826ZM267.28 177.232C267.222 177.232 267.165 177.237 267.106 177.248C266.635 177.332 266.172 177.795 265.953 178.397C265.677 179.144 265.726 180.044 265.799 180.748C266.045 183.094 268.109 185.743 269.769 187.871C269.858 187.985 269.945 188.098 270.032 188.21C272.782 186.555 275.144 184.153 276.738 181.369C277.22 180.529 277.713 179.367 277.318 178.614C277.13 178.253 276.766 178.097 276.492 178.028C275.875 177.876 275.106 178.014 274.573 178.378C273.508 179.107 272.888 180.39 272.19 181.992C271.977 182.483 271.441 182.76 270.927 182.65C270.405 182.543 270.027 182.083 270.02 181.544C270.013 180.776 269.603 179.953 269.17 179.083L268.858 178.449C268.565 177.82 267.916 177.232 267.28 177.232Z" fill="#99A1AF"/>
</svg>
