<svg width="208" height="261" viewBox="0 0 208 261" fill="none" xmlns="http://www.w3.org/2000/svg">
<mask id="mask0_12_12013" style="mask-type:luminance" maskUnits="userSpaceOnUse" x="0" y="0" width="208" height="261">
<path d="M207.434 27.3746L37.5423 0L0 232.995L169.892 260.369L207.434 27.3746Z" fill="white"/>
</mask>
<g mask="url(#mask0_12_12013)">
<path d="M124.746 208.43C124.746 208.43 108.989 213.138 92.18 210.429C75.3707 207.721 64.197 198.42 64.197 198.42C70.8681 187.44 77.7124 171.9 76.5381 159.106C76.8739 159.16 76.6484 159.132 76.9842 159.187L123.036 166.607L125.075 166.935C122.289 174.803 119.759 183.607 119.685 191.952C119.65 196.008 122.336 205.169 124.746 208.43Z" fill="#FFF9E1"/>
<path d="M125.146 166.535C126.482 166.753 127.663 167.233 128.351 168.39C129.136 169.709 129.299 171.297 129.4 172.83C129.816 179.127 129.495 185.471 128.464 191.696C127.948 194.809 127.254 197.893 126.385 200.926C125.795 202.988 125.496 206.583 123.201 207.385C122.358 207.679 121.448 207.7 120.555 207.719C120.343 207.723 120.114 207.722 119.942 207.597C119.755 207.461 119.689 207.216 119.636 206.99C118.585 202.507 117.777 197.966 117.217 193.395C116.959 191.296 116.919 189.25 116.917 187.135C116.917 185.946 116.956 184.756 117.035 183.569C117.071 183.041 116.951 180.908 117.326 180.564C112.666 184.838 104.544 186.118 98.4107 185.693C98.1513 185.675 97.2715 185.623 96.3015 185.354C92.267 184.233 88.4779 182.435 85.1607 179.867C83.54 178.612 81.8885 177.189 80.5916 175.592C79.4957 174.244 78.3481 172.398 77.4187 175.24C75.4043 181.4 73.3996 187.571 70.949 193.571C70.3995 194.917 69.7973 196.298 68.7237 197.278C67.6501 198.259 65.9726 198.729 64.7131 198.003C64.5205 197.892 64.3347 197.747 64.2479 197.542C64.1327 197.269 64.2176 196.957 64.3038 196.673C65.4643 192.848 66.6315 189.009 68.3276 185.389C69.6739 182.517 71.3446 179.803 72.6137 176.895C73.2328 175.476 78.1438 159.363 76.5366 159.104C76.8736 159.159 76.6451 159.134 76.9821 159.188C81.1569 159.861 85.331 160.533 89.5058 161.206C96.7693 162.376 104.032 163.547 111.296 164.717C114.262 165.195 117.229 165.673 120.196 166.151C121.676 166.39 123.525 166.27 125.146 166.535Z" fill="#FFF1F2"/>
<path d="M152.35 111.613C152.481 103.217 151.476 94.6918 149.499 86.8382C149.243 85.8014 148.967 84.7735 148.671 83.7601C145.05 71.3102 129.114 64.7765 117.095 63.0181C105.133 60.9124 87.9507 62.1098 80.6021 72.7921C80.0031 73.6613 79.4186 74.5507 78.8497 75.4546C74.5055 82.2896 70.8737 90.0679 68.3606 98.0802C66.5742 103.765 65.3526 109.572 64.8442 115.242C64.0751 123.863 65.0023 132.168 66.8724 140.576C68.8239 149.367 73.3459 157.375 78.6298 164.575C78.7331 164.711 78.8306 164.846 78.9348 164.976C79.2672 165.429 79.6073 165.871 79.9443 166.295C84.557 172.111 89.9369 176.137 97.4553 178.189C98.4249 178.454 99.3075 178.511 99.565 178.529C107.339 179.078 113.72 176.81 119.926 172.737C120.379 172.44 120.841 172.127 121.299 171.802C121.438 171.711 121.573 171.613 121.714 171.517C128.992 166.341 135.8 160.159 140.414 152.426C144.831 145.03 148.32 137.438 150.298 129.011C151.597 123.468 152.261 117.572 152.35 111.613Z" fill="#FFF9E1"/>
<path d="M66.8724 140.576C67.8559 144.776 69.4367 148.813 71.3974 152.638C73.3445 156.473 75.6638 160.111 78.1936 163.586C80.7037 167.068 83.5428 170.34 86.9964 172.877C90.4198 175.415 94.4298 177.225 98.558 178.123C102.77 178.611 107.138 178.18 111.18 176.81C115.245 175.459 118.958 173.226 122.438 170.714C125.932 168.21 129.277 165.486 132.329 162.455C135.393 159.44 138.162 156.104 140.415 152.426C138.244 156.153 135.543 159.562 132.534 162.658C129.509 165.744 126.181 168.52 122.703 171.081C119.249 173.662 115.475 175.918 111.351 177.318C107.229 178.728 102.816 179.194 98.4674 178.704C94.1851 177.756 90.1716 175.909 86.6779 173.306C83.1836 170.709 80.2919 167.389 77.8285 163.85C75.3312 160.326 73.0431 156.646 71.1414 152.765C69.257 148.881 67.7626 144.797 66.8724 140.576Z" fill="#90A1B9"/>
<path d="M90.8477 105.315C89.4341 104.88 88.0048 104.498 86.5625 104.171C84.2488 103.646 81.8762 103.265 79.4969 103.344C78.3391 103.382 77.07 103.478 75.9656 103.854C75.1273 104.14 73.9996 104.069 73.2649 104.622C74.4426 103.735 75.6941 102.946 77.0025 102.265C77.862 101.819 78.7499 101.417 79.6822 101.155C82.8994 100.249 86.4847 100.958 89.7214 101.458C93.4287 102.032 97.0382 103.097 100.615 104.204C101.475 104.47 102.397 104.788 102.905 105.531C103.789 106.822 103.355 109.393 102.591 110.664C102.533 110.761 102.461 110.862 102.352 110.887C102.238 110.913 102.125 110.848 102.029 110.784C99.7408 109.266 97.51 107.749 94.9486 106.746C93.5998 106.22 92.2318 105.742 90.8477 105.315Z" fill="#FFCCD3" stroke="#90A1B9" stroke-width="0.266309" stroke-miterlimit="10"/>
<path d="M128.836 111.436C130.315 111.467 131.792 111.553 133.264 111.696C135.625 111.924 137.997 112.308 140.232 113.13C141.319 113.53 142.494 114.02 143.424 114.724C144.13 115.258 145.223 115.545 145.747 116.301C144.907 115.089 143.967 113.947 142.939 112.89C142.263 112.195 141.546 111.536 140.744 110.993C137.974 109.123 134.347 108.67 131.117 108.128C127.417 107.508 123.656 107.386 119.912 107.314C119.012 107.296 118.038 107.308 117.322 107.854C116.077 108.802 115.681 111.379 116.007 112.826C116.032 112.936 116.069 113.054 116.165 113.113C116.264 113.173 116.392 113.147 116.504 113.116C119.153 112.394 121.747 111.654 124.494 111.507C125.94 111.431 127.388 111.406 128.836 111.436Z" fill="#FFCCD3" stroke="#90A1B9" stroke-width="0.266309" stroke-miterlimit="10"/>
<path d="M142.438 125.596C141.766 126.55 141.022 127.59 140.103 128.305C138.871 129.251 138.687 129.224 138.687 129.224C138.687 129.224 137.662 127.982 136.179 126.605C136.145 126.551 135.984 126.437 135.944 126.377C137.367 126.654 137.911 126.829 139.23 126.731C140.664 126.625 141.382 126.317 142.438 125.596Z" fill="#90A1B9"/>
<path d="M138.711 129.222C138.711 129.222 133.129 132.301 128.396 131.538C124.2 130.862 115.537 125.488 115.537 125.488C115.537 125.488 125.607 122.131 129.802 122.808C132.068 123.173 134.485 125.013 136.226 126.632C137.709 128.009 138.711 129.222 138.711 129.222Z" fill="white"/>
<path d="M115.537 125.488C117.265 124.141 119.291 123.187 121.409 122.529C122.473 122.21 123.567 121.962 124.683 121.842C125.797 121.704 126.929 121.672 128.058 121.764C128.622 121.804 129.183 121.887 129.742 121.986C130.312 122.084 130.909 122.268 131.443 122.486C132.526 122.934 133.478 123.567 134.371 124.244C135.246 124.945 136.059 125.712 136.777 126.552C137.496 127.388 138.164 128.264 138.711 129.222C137.006 127.841 135.366 126.459 133.586 125.356C132.708 124.793 131.788 124.308 130.86 123.953C130.389 123.772 129.943 123.645 129.446 123.555C128.941 123.458 128.431 123.381 127.916 123.335C125.86 123.118 123.758 123.258 121.683 123.646C119.606 124.036 117.549 124.652 115.537 125.488Z" fill="#90A1B9"/>
<path d="M131.908 127.259C131.553 129.46 129.481 130.957 127.28 130.602C125.079 130.247 123.582 128.175 123.937 125.974C124.292 123.774 126.364 122.277 128.565 122.631C130.766 122.986 132.262 125.058 131.908 127.259Z" fill="#90A1B9"/>
<path d="M129.448 127.342C130.206 127.464 130.919 126.949 131.041 126.191C131.163 125.433 130.648 124.72 129.89 124.597C129.132 124.475 128.419 124.991 128.297 125.749C128.174 126.507 128.69 127.22 129.448 127.342Z" fill="#FFFEFF"/>
<path d="M118.448 121.933C120.065 120.855 121.9 120.111 123.803 119.655C125.709 119.203 127.714 119.128 129.661 119.454C131.599 119.833 133.455 120.634 135.028 121.811C136.597 122.994 137.919 124.467 138.962 126.102C137.748 124.593 136.373 123.218 134.799 122.132C133.223 121.054 131.443 120.286 129.569 119.957C127.699 119.603 125.763 119.679 123.885 120.039C122.943 120.215 122.015 120.473 121.108 120.792C120.195 121.1 119.306 121.483 118.448 121.933Z" fill="#90A1B9"/>
<path d="M73.5236 114.492C73.8616 115.609 74.242 116.83 74.8896 117.797C75.7616 119.082 75.9454 119.114 75.9454 119.114C75.9454 119.114 77.3079 118.257 79.1485 117.415C79.1979 117.375 79.3872 117.317 79.4433 117.273C78.0052 117.089 77.4343 117.084 76.2123 116.577C74.8847 116.026 74.2999 115.509 73.5236 114.492Z" fill="#90A1B9"/>
<path d="M75.9229 119.105C75.9229 119.105 80.255 123.781 84.9887 124.544C89.1843 125.22 99.0963 122.839 99.0963 122.839C99.0963 122.839 90.5911 116.489 86.3955 115.813C84.1294 115.448 81.2567 116.436 79.096 117.427C77.2555 118.268 75.9229 119.105 75.9229 119.105Z" fill="white"/>
<path d="M99.0964 122.839C97.4495 121.414 95.6896 120.183 93.8403 119.159C91.9917 118.138 90.04 117.346 88.0205 116.905C87.5179 116.787 87.009 116.701 86.4982 116.634C85.9987 116.563 85.5363 116.544 85.0318 116.567C84.0382 116.614 83.0134 116.785 82.0024 117.044C79.966 117.532 77.9748 118.328 75.9226 119.104C76.7425 118.367 77.6523 117.744 78.5963 117.176C79.5427 116.604 80.5547 116.132 81.6066 115.741C82.6671 115.378 83.7697 115.077 84.9386 114.992C85.5149 114.953 86.1392 114.966 86.7102 115.052C87.2713 115.132 87.8308 115.23 88.3794 115.369C89.4799 115.636 90.5448 116.022 91.5588 116.504C92.5808 116.968 93.5414 117.547 94.4511 118.184C96.2554 119.475 97.8795 121.017 99.0964 122.839Z" fill="#90A1B9"/>
<path d="M83.3489 119.435C82.9942 121.636 84.4911 123.707 86.6921 124.062C88.893 124.417 90.9649 122.92 91.3195 120.719C91.6742 118.518 90.1773 116.446 87.9764 116.091C85.7754 115.737 83.7035 117.234 83.3489 119.435Z" fill="#90A1B9"/>
<path d="M89.0763 120.837C89.8342 120.959 90.5477 120.444 90.6698 119.686C90.7919 118.928 90.2765 118.215 89.5185 118.093C88.7606 117.97 88.0471 118.486 87.925 119.244C87.8029 120.002 88.3183 120.715 89.0763 120.837Z" fill="#FFFEFF"/>
<path d="M97.4502 118.55C96.7768 117.853 96.0535 117.21 95.2837 116.631C94.5224 116.043 93.7225 115.506 92.8837 115.044C91.2133 114.112 89.3992 113.432 87.5124 113.181C85.6304 112.904 83.6988 113.075 81.8642 113.603C80.0287 114.139 78.2921 115.013 76.6652 116.064C78.1686 114.84 79.887 113.857 81.7479 113.226C83.6116 112.602 85.6253 112.425 87.5834 112.674C89.5346 112.976 91.4139 113.677 93.082 114.705C94.7454 115.735 96.2544 117.018 97.4502 118.55Z" fill="#90A1B9"/>
<path d="M75.7713 138.238C81.0346 139.086 85.7905 136.739 86.3938 132.994C86.9971 129.25 83.2194 125.527 77.956 124.679C72.6927 123.831 67.9368 126.179 67.3335 129.923C66.7302 133.668 70.5079 137.39 75.7713 138.238Z" fill="#FFF7D4"/>
<path d="M131.506 147.219C136.77 148.067 141.526 145.719 142.129 141.975C142.732 138.231 138.955 134.508 133.691 133.66C128.428 132.812 123.672 135.16 123.069 138.904C122.465 142.648 126.243 146.371 131.506 147.219Z" fill="#FFF7D4"/>
<path d="M89.1829 152.426C89.4831 152.649 97.2316 150.725 102.776 153.675C107.855 152.436 115.443 156.735 115.783 156.647C115.908 156.466 113.101 163.752 101.45 162.178C89.8719 160.074 89.109 152.215 89.1829 152.426Z" fill="#FFCCD3"/>
<path d="M106.185 160.261C101.881 161.306 97.6702 159.634 94.3597 156.994C94.5811 157.17 94.8522 157.271 95.1189 157.366C97.4023 158.178 99.654 158.613 102.049 158.932C103.255 159.092 104.469 159.207 105.685 159.251C106.311 159.273 106.938 159.277 107.565 159.259C107.984 159.246 108.841 159.356 109.21 159.158C107.974 159.821 106.624 160.271 105.237 160.481" fill="#FF637E"/>
<path d="M88.7059 152.038C90.4499 153.527 92.5767 154.719 94.8294 155.663C97.0922 156.595 99.5092 157.285 101.978 157.644C102.593 157.746 103.214 157.796 103.833 157.863C104.143 157.894 104.452 157.922 104.762 157.949C105.072 157.961 105.381 157.971 105.691 157.979C106.31 157.994 106.928 158 107.545 157.998C108.159 157.967 108.77 157.927 109.379 157.881C110.606 157.821 111.784 157.578 112.966 157.378C114.14 157.151 115.266 156.818 116.392 156.499C115.289 156.859 114.181 157.234 113.016 157.505C111.838 157.732 110.658 157.999 109.424 158.085C108.811 158.141 108.195 158.189 107.576 158.229C106.953 158.235 106.328 158.233 105.702 158.222C105.389 158.216 105.076 158.208 104.762 158.198C104.448 158.173 104.135 158.146 103.821 158.118C103.194 158.054 102.564 158.008 101.941 157.907C99.4442 157.522 96.9919 156.825 94.7259 155.842C92.465 154.857 90.3654 153.592 88.7059 152.038Z" fill="#90A1B9"/>
<path d="M108.656 143.723C108.075 144.278 107.341 144.657 106.559 144.878C105.775 145.096 104.949 145.173 104.131 145.075C103.314 144.987 102.509 144.723 101.802 144.294C101.095 143.874 100.491 143.251 100.18 142.508C100.871 142.919 101.521 143.226 102.201 143.445C102.877 143.667 103.568 143.799 104.267 143.883C104.966 143.967 105.681 143.989 106.404 143.959C107.129 143.926 107.861 143.83 108.656 143.723Z" fill="#90A1B9"/>
<path d="M104.129 128.548C102.534 138.444 93.0068 145.135 82.8509 143.498C79.5768 142.971 76.6399 141.645 74.211 139.746C73.596 139.271 73.0128 138.754 72.4634 138.212C71.8163 137.559 71.2179 136.867 70.682 136.131C68.8873 133.713 67.6987 130.875 67.2863 127.852C67.0516 126.157 67.0657 124.401 67.3522 122.623C68.9456 112.733 78.4741 106.036 88.6236 107.672C90.4487 107.966 92.1662 108.505 93.7468 109.254C96.5672 110.585 98.9632 112.575 100.765 114.987C101.308 115.719 101.801 116.49 102.229 117.292C102.59 117.97 102.913 118.666 103.183 119.383C104.267 122.222 104.643 125.359 104.129 128.548Z" fill="#FFF1F2"/>
<path d="M123.539 150.057C133.728 151.699 143.279 145.01 144.873 135.116C146.468 125.222 139.5 115.871 129.312 114.23C119.124 112.588 109.572 119.278 107.978 129.171C106.384 139.065 113.351 148.416 123.539 150.057Z" fill="#FFF1F2"/>
<path d="M103.637 125.588C102.043 135.483 92.7266 142.209 82.8316 140.614C79.6417 140.1 76.7832 138.787 74.4229 136.899C73.8253 136.427 73.2584 135.912 72.7253 135.373C72.0968 134.724 71.5164 134.034 70.9967 133.3C69.2567 130.892 68.1094 128.06 67.7196 125.041C67.4976 123.348 67.5181 121.593 67.8046 119.815C69.3981 109.925 78.7151 103.194 88.6043 104.788C90.3822 105.074 92.0551 105.606 93.5927 106.348C96.337 107.667 98.6649 109.646 100.412 112.049C100.938 112.778 101.416 113.546 101.83 114.346C102.18 115.023 102.491 115.717 102.752 116.432C103.797 119.265 104.151 122.398 103.637 125.588Z" fill="#FFE4E6" stroke="#90A1B9" stroke-width="1.17706" stroke-miterlimit="10"/>
<g opacity="0.5">
<path d="M99.9821 112.322L71.3907 132.979C69.6994 130.638 68.5841 127.885 68.2051 124.95L93.3543 106.781C96.0211 108.063 98.2841 109.985 99.9821 112.322Z" fill="#FFFEFA"/>
<path d="M102.257 116.583L74.7204 136.476C74.1398 136.018 73.5885 135.518 73.0702 134.994L101.36 114.556C101.701 115.212 102.004 115.887 102.257 116.583Z" fill="#FFFEFA"/>
</g>
<path d="M124.526 147.335C134.419 148.929 143.732 142.201 145.326 132.307C146.92 122.414 140.192 113.101 130.299 111.507C120.405 109.913 111.092 116.641 109.498 126.534C107.904 136.428 114.632 145.741 124.526 147.335Z" fill="#FFE4E6" stroke="#90A1B9" stroke-width="1.17706" stroke-miterlimit="10"/>
<g opacity="0.5">
<path d="M141.584 118.994L113.128 139.7C111.449 137.359 110.343 134.605 109.969 131.668L134.998 113.455C137.65 114.735 139.898 116.658 141.584 118.994Z" fill="#FFFEFA"/>
<path d="M143.841 123.256L116.436 143.197C115.859 142.739 115.312 142.239 114.796 141.715L142.951 121.228C143.29 121.886 143.59 122.561 143.841 123.256Z" fill="#FFFEFA"/>
</g>
<path d="M102.444 115.745C102.444 115.745 107.049 122.041 113.527 117.531L109.592 125.955C109.592 125.955 108.27 123.494 103.663 124.999L102.444 115.745Z" fill="#90A1B9"/>
<path d="M114.587 153.435C115.048 153.509 115.482 153.195 115.557 152.734C115.631 152.273 115.317 151.839 114.856 151.765C114.395 151.69 113.961 152.004 113.887 152.465C113.813 152.926 114.126 153.36 114.587 153.435Z" fill="#90A1B9"/>
<path d="M178.41 262.166L159.864 259.177L132.49 254.773L128.673 254.158L114.808 251.93L59.3594 243.001L42.7244 240.321L27.5469 237.881L-15.6133 230.933C-15.6133 230.933 -8.25371 196.024 29.2455 192.599C34.9087 192.081 41.2372 192.392 48.361 193.426C50.0614 193.676 51.6283 193.941 53.0734 194.221C61.1434 195.784 65.4842 197.813 69.2836 199.945C75.1133 203.203 79.6776 206.693 94.4649 209.075C109.909 211.564 115.153 209.541 120.053 207.988C123.458 206.904 126.696 206.048 133.064 207.074C138.654 207.975 149.153 210 158.733 215.586C171.438 222.974 182.527 236.618 178.41 262.166Z" fill="#FFE4E6"/>
<path d="M159.864 259.177L132.49 254.773C132.457 251.536 132.483 248.304 132.557 245.073C131.432 248.17 130.132 251.204 128.673 254.158L114.808 251.93C120.272 244.142 124.631 235.587 127.691 226.584C125.019 233.921 118.707 239.831 111.212 242.027C115.115 236.82 117.346 230.521 118.55 224.121C119.551 218.798 119.867 213.395 120.053 207.988C123.458 206.904 126.696 206.048 133.064 207.074C138.654 207.975 149.153 210 158.733 215.586C159.217 230.114 159.594 244.648 159.864 259.177Z" fill="#FCCEE8"/>
<path d="M56.5333 224.173C57.4766 230.453 58.4209 236.728 59.3594 243.001L46.8381 240.984C46.7932 240.189 46.7841 239.395 46.774 238.607C46.7231 235.445 46.6731 232.277 46.628 229.117C44.6767 232.57 44.7695 237.026 42.7244 240.321L27.5468 237.881C29.79 225.033 37.3741 213.629 45.2368 203.122C47.6009 199.956 50.0887 196.763 53.0734 194.221C61.1434 195.784 65.4842 197.813 69.2836 199.945C63.7423 204.22 56.9584 210.251 56.1257 217.491C55.8687 219.715 56.1982 221.961 56.5333 224.173Z" fill="#FCCEE8"/>
<path d="M70.2276 211.463C71.1903 211.618 72.0965 210.964 72.2516 210.001C72.4067 209.038 71.7521 208.132 70.7894 207.977C69.8267 207.822 68.9205 208.476 68.7654 209.439C68.6103 210.402 69.265 211.308 70.2276 211.463Z" fill="#FFCCD3"/>
<path d="M65.34 238.097C66.3027 238.252 67.2089 237.598 67.364 236.635C67.5191 235.672 66.8644 234.766 65.9017 234.611C64.9391 234.456 64.0329 235.11 63.8778 236.073C63.7227 237.036 64.3773 237.942 65.34 238.097Z" fill="#FFCCD3"/>
<path d="M1.55779 229.757C2.52047 229.912 3.42664 229.258 3.58175 228.295C3.73687 227.332 3.08221 226.426 2.11952 226.271C1.15683 226.116 0.250665 226.771 0.0955478 227.733C-0.0595698 228.696 0.595096 229.602 1.55779 229.757Z" fill="#FFCCD3"/>
<path d="M82.8764 240.252C83.8391 240.407 84.7452 239.753 84.9004 238.79C85.0555 237.827 84.4008 236.921 83.4381 236.766C82.4754 236.611 81.5693 237.265 81.4142 238.228C81.259 239.191 81.9137 240.097 82.8764 240.252Z" fill="#FFCCD3"/>
<path d="M3.39848 210.009C4.36117 210.164 5.26733 209.51 5.42245 208.547C5.57757 207.584 4.9229 206.678 3.96021 206.523C2.99752 206.368 2.09136 207.023 1.93625 207.985C1.78113 208.948 2.43579 209.854 3.39848 210.009Z" fill="#FFCCD3"/>
<path d="M102.407 244.368C103.369 244.523 104.276 243.868 104.431 242.905C104.586 241.943 103.931 241.037 102.969 240.881C102.006 240.726 101.1 241.381 100.945 242.344C100.789 243.306 101.444 244.213 102.407 244.368Z" fill="#FFCCD3"/>
<path d="M170.318 255.757C171.28 255.912 172.186 255.258 172.342 254.295C172.497 253.332 171.842 252.426 170.879 252.271C169.917 252.116 169.01 252.771 168.855 253.733C168.7 254.696 169.355 255.602 170.318 255.757Z" fill="#FFCCD3"/>
<path d="M130.712 251.835C131.674 251.99 132.58 251.335 132.736 250.372C132.891 249.41 132.236 248.503 131.273 248.348C130.311 248.193 129.404 248.848 129.249 249.811C129.094 250.773 129.749 251.679 130.712 251.835Z" fill="#FFCCD3"/>
<path d="M168.807 231.559C167.943 232.013 166.876 231.68 166.423 230.817C165.969 229.954 166.302 228.887 167.165 228.433C168.027 227.98 169.095 228.312 169.549 229.175C170.002 230.039 169.67 231.106 168.807 231.559Z" fill="#FFCCD3"/>
<path d="M171.71 243.264C172.672 243.419 173.578 242.764 173.733 241.802C173.889 240.839 173.234 239.933 172.271 239.778C171.309 239.623 170.402 240.277 170.247 241.24C170.092 242.203 170.747 243.109 171.71 243.264Z" fill="#FFCCD3"/>
<path d="M87.8463 216.189C88.809 216.344 89.7151 215.69 89.8703 214.727C90.0254 213.764 89.3707 212.858 88.408 212.703C87.4453 212.548 86.5392 213.203 86.3841 214.165C86.2289 215.128 86.8836 216.034 87.8463 216.189Z" fill="#FFCCD3"/>
<path d="M15.5963 203.057C16.559 203.213 17.4651 202.558 17.6203 201.595C17.7754 200.632 17.1207 199.726 16.158 199.571C15.1953 199.416 14.2892 200.071 14.1341 201.033C13.9789 201.996 14.6336 202.902 15.5963 203.057Z" fill="#FFCCD3"/>
<path d="M110.159 231.707C111.122 231.862 112.028 231.207 112.183 230.245C112.338 229.282 111.684 228.376 110.721 228.221C109.758 228.066 108.852 228.72 108.697 229.683C108.542 230.646 109.197 231.552 110.159 231.707Z" fill="#FFCCD3"/>
<path d="M121.992 241.512C122.955 241.667 123.861 241.013 124.016 240.05C124.171 239.087 123.517 238.181 122.554 238.026C121.591 237.871 120.685 238.526 120.53 239.488C120.375 240.451 121.03 241.357 121.992 241.512Z" fill="#FFCCD3"/>
<path d="M106.2 217.433C107.163 217.588 108.069 216.933 108.224 215.971C108.379 215.008 107.725 214.102 106.762 213.947C105.799 213.792 104.893 214.446 104.738 215.409C104.583 216.372 105.237 217.278 106.2 217.433Z" fill="#FFCCD3"/>
<path d="M121.38 216.178C122.343 216.333 123.249 215.678 123.404 214.716C123.559 213.753 122.904 212.847 121.942 212.692C120.979 212.537 120.073 213.191 119.918 214.154C119.763 215.117 120.417 216.023 121.38 216.178Z" fill="#FFCCD3"/>
<path d="M92.603 231.064C93.5656 231.219 94.4718 230.565 94.6269 229.602C94.782 228.639 94.1274 227.733 93.1647 227.578C92.202 227.423 91.2958 228.077 91.1407 229.04C90.9856 230.003 91.6403 230.909 92.603 231.064Z" fill="#FFCCD3"/>
<path d="M75.9813 225.082C76.944 225.237 77.8502 224.583 78.0053 223.62C78.1604 222.657 77.5057 221.751 76.543 221.596C75.5803 221.441 74.6742 222.096 74.5191 223.058C74.364 224.021 75.0186 224.927 75.9813 225.082Z" fill="#FFCCD3"/>
<path d="M9.44878 218.088C10.4115 218.243 11.3176 217.588 11.4727 216.625C11.6279 215.663 10.9732 214.757 10.0105 214.601C9.04782 214.446 8.14166 215.101 7.98654 216.064C7.83142 217.026 8.48609 217.933 9.44878 218.088Z" fill="#FFCCD3"/>
<path d="M59.4948 224.736C60.4575 224.891 61.3636 224.236 61.5188 223.273C61.6739 222.311 61.0192 221.405 60.0565 221.249C59.0938 221.094 58.1877 221.749 58.0326 222.712C57.8774 223.674 58.5321 224.581 59.4948 224.736Z" fill="#FFCCD3"/>
<path d="M178.41 262.166L159.864 259.177L132.49 254.773L128.673 254.158L114.808 251.93L59.3594 243.001L42.7244 240.321L27.5469 237.881L-15.6133 230.933C-15.6133 230.933 -8.25371 196.024 29.2455 192.599C34.9087 192.081 41.2372 192.392 48.361 193.426C50.0614 193.676 51.6283 193.941 53.0734 194.221C61.1434 195.784 65.4842 197.813 69.2836 199.945C75.1133 203.203 79.6776 206.693 94.4649 209.075C109.909 211.564 115.153 209.541 120.053 207.988C123.458 206.904 126.696 206.048 133.064 207.074C138.654 207.975 149.153 210 158.733 215.586C171.438 222.974 182.527 236.618 178.41 262.166Z" stroke="#90A1B9" stroke-width="0.588529" stroke-miterlimit="10"/>
<path d="M148.814 111.583L150.866 124.283L153.764 109.996L148.814 111.583Z" fill="#FFCCD3" stroke="#90A1B9" stroke-width="0.294264" stroke-miterlimit="10"/>
<path d="M71.8149 99.6138L64.7884 113.121L66.8428 95.9906L71.8149 99.6138Z" fill="#FFCCD3" stroke="#90A1B9" stroke-width="0.348291" stroke-miterlimit="10"/>
<path d="M158.445 102.718C158.165 104.014 157.747 105.276 157.15 106.467C157.053 106.66 156.915 106.888 156.749 107.142C155.568 108.919 152.82 111.916 150.762 112.293C150.049 112.429 149.41 112.248 148.963 111.586C148.948 111.566 148.939 111.547 148.925 111.526C148.901 111.487 148.872 111.446 148.849 111.407C148.83 111.374 148.812 111.341 148.794 111.303C148.739 111.198 148.691 111.089 148.645 110.969C148.599 110.848 148.555 110.716 148.517 110.578C145.753 100.726 140.758 91.5102 134.003 83.8227C132.083 81.6415 130.574 80.2061 128.028 78.8004C126.386 77.8921 124.571 77.2836 122.705 77.0247C122.489 76.9958 122.256 76.9642 122.012 76.9249C121.97 76.9241 121.929 76.9176 121.889 76.911C121.743 76.8876 121.591 76.8691 121.439 76.8506C121.271 76.8234 121.107 76.803 120.938 76.7817C120.628 76.7437 120.306 76.7096 119.982 76.6813C119.595 76.6428 119.2 76.6149 118.809 76.5996C118.798 76.5978 118.779 76.6008 118.768 76.5989C117.5 76.5496 116.256 76.6473 115.356 77.0566C115.33 77.0644 115.311 77.0732 115.292 77.0821C115.169 77.1398 115.052 77.2043 114.945 77.2765C114.954 77.1826 114.968 77.0954 114.978 76.9957L114.984 76.955C115.018 76.6743 115.06 76.377 115.1 76.0497C115.648 71.9831 116.814 64.4512 116.973 63.505C117.139 62.5482 117.442 61.6671 118.023 60.9083C118.024 60.9025 118.032 60.8918 118.038 60.8869C118.49 60.304 119.102 59.8004 119.948 59.3943C121.868 58.4697 124.106 58.4905 126.221 58.7539C131.167 59.36 135.895 61.2009 140.093 63.8922C142.277 65.2872 144.311 66.9085 146.167 68.7098C150.162 72.5846 153.53 77.2106 155.815 82.2702C156.119 82.9333 156.403 83.611 156.663 84.2907C156.752 84.5195 156.84 84.7484 156.917 84.9753C157.001 85.1916 157.08 85.407 157.147 85.6204C157.181 85.7034 157.209 85.7855 157.237 85.8734C157.362 86.2453 157.481 86.6162 157.593 86.9919C157.663 87.2238 157.732 87.4614 157.796 87.6923C157.933 88.1734 158.059 88.6526 158.171 89.1416C158.227 89.3832 158.284 89.6248 158.333 89.8712C158.481 90.5448 158.603 91.2321 158.702 91.9156C158.796 92.515 158.866 93.1164 158.917 93.7209C158.998 94.5864 159.042 95.4637 159.05 96.3354C159.063 96.8143 159.058 97.2904 159.034 97.7694C159.027 98.1081 159.009 98.4449 158.984 98.7808C158.891 100.101 158.732 101.423 158.445 102.718Z" fill="#FFCCD3" stroke="#90A1B9" stroke-width="0.294264" stroke-miterlimit="10"/>
<path d="M157.593 86.9919C157.067 86.5197 156.812 85.8109 156.472 85.1838C155.026 82.5712 153.852 85.1773 152.117 85.5903C151.739 85.6802 151.342 85.6252 150.961 85.5472C150.474 85.4472 149.991 85.3093 149.549 85.0818C148.386 84.4836 147.796 83.4246 147.06 82.4089C146.327 81.3966 145.452 80.4635 144.712 79.438C143.79 78.1629 143.702 76.563 142.8 75.2433C142.216 74.3921 141.404 73.7367 140.703 72.9799C139.488 71.6755 138.597 69.9938 138.526 68.212C138.461 66.6933 139.114 65.1949 140.093 63.8921C142.276 65.2872 144.31 66.9085 146.166 68.7097C150.162 72.5845 153.529 77.2106 155.814 82.2701C156.509 83.8068 157.113 85.3826 157.593 86.9919Z" fill="#FFA1AD"/>
<path d="M158.445 102.718C158.165 104.014 157.747 105.276 157.15 106.467C157.053 106.66 156.915 106.888 156.749 107.142C155.555 108.893 152.765 111.776 150.707 112.153C150 112.29 149.397 112.181 148.963 111.586C148.948 111.566 148.939 111.547 148.925 111.526C148.901 111.487 148.872 111.446 148.849 111.407C148.83 111.374 148.811 111.341 148.794 111.303C148.739 111.198 148.691 111.089 148.645 110.969C148.599 110.848 148.555 110.716 148.517 110.578C145.753 100.726 140.758 91.5103 134.003 83.8227C132.083 81.6416 130.574 80.2061 128.028 78.8005C126.386 77.8921 124.571 77.2836 122.705 77.0247C122.489 76.9959 122.256 76.9642 122.012 76.9249C121.97 76.9242 121.929 76.9176 121.889 76.9111C121.737 76.8867 121.591 76.8691 121.439 76.8506C121.271 76.8234 121.107 76.803 120.938 76.7817C120.622 76.7428 120.3 76.7087 119.982 76.6814C119.595 76.6428 119.2 76.615 118.809 76.5997C118.797 76.5978 118.779 76.6008 118.767 76.5989C117.763 76.5802 116.377 77.1198 115.355 77.0566C115.225 77.0534 115.097 77.0328 114.978 76.9957L114.984 76.9551C115.018 76.6743 115.06 76.377 115.1 76.0498C115.648 71.9831 116.814 64.4512 116.973 63.5051C117.139 62.5483 117.442 61.6671 118.023 60.9083C118.024 60.9025 118.032 60.8918 118.038 60.887C118.087 60.8412 118.132 60.7887 118.181 60.743C117.885 61.0185 117.895 61.5715 117.891 61.9399C117.887 62.3594 117.84 62.8704 118.015 63.2605C118.169 63.6036 118.447 63.6842 118.783 63.786C119.338 63.9548 119.886 64.1045 120.451 64.2432C121.075 64.3961 121.671 64.6455 122.286 64.831C123.04 65.058 123.819 65.1889 124.591 65.3424C125.713 65.5661 126.825 65.8406 127.935 66.115C128.675 66.2973 129.418 66.4814 130.123 66.7697C128.31 66.7059 126.524 66.1946 124.746 65.8503C124.071 65.7195 123.394 65.5883 122.707 65.5516C122.09 65.5183 121.472 65.5612 120.858 65.6316C120.368 65.6879 119.874 65.7628 119.413 65.9382C117.272 66.752 117.062 69.0753 116.933 71.0389C122.386 67.7924 129.054 67.472 135.397 67.582C137.489 67.621 139.633 67.7101 141.558 68.5269C138.834 68.857 136.117 69.2897 133.427 69.8218C127.963 70.9146 122.42 72.5013 118.038 75.9443C119.145 75.6935 120.308 75.6901 121.399 75.4307C122.186 75.2475 122.9 74.8857 123.699 74.6985C126.015 74.1596 128.344 73.5453 130.711 73.2471C135.72 72.6057 140.79 72.9218 145.81 73.2895C140.311 74.5973 134.714 75.2632 129.177 76.4038C128.937 76.4486 128.662 76.5294 128.583 76.7611C128.476 77.0539 128.772 77.328 129.029 77.5066C130.868 78.7448 132.702 79.9821 134.541 81.2203C135.304 81.7367 135.824 82.1722 136.404 82.8619C137.035 83.6074 137.762 84.0582 138.714 84.2117C139.187 84.1985 139.631 83.9959 140.063 83.7971C143.912 82.0328 147.761 80.2686 151.604 78.5033C150.085 80.0528 148.685 81.5262 146.916 82.7733C145.018 84.1187 143.151 85.4988 141.312 86.9194C141.155 87.0432 140.981 87.1999 140.99 87.404C140.993 87.5297 141.071 87.6377 141.145 87.7389C141.69 88.5003 141.937 89.333 142.374 90.1366C142.699 90.7435 143.244 91.2127 143.586 91.8281C143.656 91.9468 143.731 92.0721 143.85 92.145C143.981 92.2198 144.137 92.2151 144.288 92.2036C145.625 92.0852 146.848 91.3761 147.825 90.4546C148.796 89.5321 149.549 88.4076 150.285 87.2861C150.76 86.5579 151.235 85.8297 151.704 85.1005C152.379 84.0529 153.07 82.9123 153.014 81.6693C153.608 84.4178 152.317 87.1784 151.054 89.6873C150.377 91.0388 149.701 92.3902 149.024 93.7417C148.674 94.4305 148.328 95.1377 148.224 95.8959C148.05 97.1972 148.625 98.3629 149.188 99.4909C149.592 100.277 149.824 101.167 150.074 102.024C150.397 103.125 151.431 105.921 150.452 106.926C153.488 103.808 155.136 99.6862 155.936 95.4634C156.727 91.2928 156.573 86.6601 155.814 82.2696C156.119 82.9326 156.403 83.6103 156.663 84.2901C156.751 84.5189 156.84 84.7477 156.916 84.9747C157.001 85.191 157.079 85.4063 157.146 85.6198C157.18 85.7028 157.209 85.7849 157.236 85.8728C157.361 86.2446 157.48 86.6155 157.593 86.9913C157.663 87.2231 157.732 87.4608 157.796 87.6917C157.933 88.1728 158.058 88.652 158.17 89.141C158.227 89.3826 158.283 89.6241 158.333 89.8706C158.481 90.5442 158.603 91.2256 158.701 91.915C158.795 92.5144 158.865 93.1158 158.917 93.7202C159.004 94.5867 159.048 95.4582 159.05 96.3348C159.062 96.8137 159.057 97.2897 159.033 97.7688C159.027 98.1075 159.008 98.4443 158.984 98.7801C158.891 100.101 158.731 101.423 158.445 102.718Z" fill="#FFA1AD"/>
<path d="M141.208 63.8506C141.349 66.2203 141.817 68.5705 142.594 70.8137" stroke="#90A1B9" stroke-width="0.294264" stroke-miterlimit="10"/>
<path d="M115.064 77.1091C122.695 70.8133 135.345 68.7032 144.9 70.1432" stroke="#90A1B9" stroke-width="0.294264" stroke-miterlimit="10"/>
<path d="M115.69 71.9814C120.848 68.6398 128.163 67.5013 133.499 67.5288C136.956 67.5471 140.413 67.8155 143.832 68.3324" stroke="#90A1B9" stroke-width="0.294264" stroke-miterlimit="10"/>
<path d="M116.817 65.4466C121.612 64.4148 128.143 66.2468 132.771 67.5302" stroke="#90A1B9" stroke-width="0.294264" stroke-miterlimit="10"/>
<path d="M117.211 62.4711C120.406 61.7191 126.466 62.8941 130.065 63.8442C133.503 64.7515 136.848 65.9708 140.173 67.2278" stroke="#90A1B9" stroke-width="0.294264" stroke-miterlimit="10"/>
<path d="M120.037 59.3872C128.024 60.3386 135.339 62.9377 141.683 65.7542" stroke="#90A1B9" stroke-width="0.294264" stroke-miterlimit="10"/>
<path d="M139.612 91.3225C144.083 89.2496 148.302 85.5497 150.936 81.384" stroke="#90A1B9" stroke-width="0.294264" stroke-miterlimit="10"/>
<path d="M143.03 96.6513C145.994 95.1759 148.38 92.7288 150.303 90.0336C151.046 88.9915 151.734 87.8953 152.167 86.6899C152.632 85.3932 152.788 83.987 152.619 82.6197" stroke="#90A1B9" stroke-width="0.294264" stroke-miterlimit="10"/>
<path d="M145.908 103.482C151.646 98.8092 155.946 90.3032 154.372 82.2625" stroke="#90A1B9" stroke-width="0.294264" stroke-miterlimit="10"/>
<path d="M148.326 109.714C155.64 102.775 158.493 91.6722 155.683 81.9898" stroke="#90A1B9" stroke-width="0.294264" stroke-miterlimit="10"/>
<path d="M137.639 87.6145C141.233 85.52 145.861 82.6324 149.455 80.5379" stroke="#90A1B9" stroke-width="0.294264" stroke-miterlimit="10"/>
<path d="M124.195 77.4007C126.242 75.7932 130.44 74.7927 136.653 74.0513C139.678 73.6905 142.731 73.6262 145.77 73.4137" stroke="#90A1B9" stroke-width="0.294264" stroke-miterlimit="10"/>
<path d="M133.623 82.6933C137.406 79.7583 141.741 77.5383 146.334 76.1847" stroke="#90A1B9" stroke-width="0.294264" stroke-miterlimit="10"/>
<path d="M171.098 278.472C160.794 277.265 150.596 275.109 140.683 272.039C140.036 271.833 139.357 271.611 138.894 271.119C138.376 270.558 138.225 269.753 138.097 268.999C137.028 262.425 137.178 255.498 135.665 249.055C134.306 243.28 134.643 237.343 133.605 231.465C132.939 227.68 131.917 225.107 130.724 222.894C128.613 218.977 125.965 216.172 123.799 209.712C122.204 204.961 115.661 199.507 121.138 171.913C121.542 171.626 121.946 171.34 122.345 171.046C128.389 166.613 133.942 161.189 137.408 155.733C138.712 153.672 139.878 151.541 141.388 149.346C141.637 148.987 141.88 148.626 142.123 148.266C145.101 143.84 147.757 139.195 148.802 133.897C148.937 133.203 149.078 132.517 149.205 131.834C150.536 124.984 151.599 118.682 152.336 111.629C154.066 110.251 156.626 107.498 157.15 106.467C157.747 105.276 158.165 104.014 158.445 102.718C158.814 104.607 159.059 106.53 159.21 108.48C160.08 119.839 157.612 132.05 156.142 142.871C154.612 154.141 155.445 165.107 156.256 176.427C157.113 188.493 159.405 199.831 161.472 211.759C162.89 219.939 163.254 227.998 163.918 236.236C164.563 244.292 166.491 252.454 167.697 260.469C167.86 261.569 170.424 278.363 171.098 278.472Z" fill="#FFCCD3" stroke="#90A1B9" stroke-width="0.294264" stroke-miterlimit="10"/>
<path d="M156.345 112.829C152.851 119.05 152.082 126.378 151.297 133.464C150.363 141.897 149.315 150.316 148.152 158.72C147.057 166.634 145.118 173.518 146.919 181.44C148.864 189.997 150.6 198.601 152.127 207.243C153.448 214.725 154.888 222.353 155.675 229.975C156.04 233.508 156.611 236.927 156.709 240.529C156.817 244.481 156.749 248.434 156.737 252.386C156.761 244.309 155.474 236.293 153.724 228.427C152.084 221.05 150.021 213.836 148.116 206.533C147.144 202.807 146.269 199.056 145.536 195.276C145.17 193.388 144.84 191.492 144.55 189.59C144.303 187.968 143.598 185.717 143.834 184.092C143.257 188.066 142.802 191.962 142 195.942C140.93 201.252 139.619 206.754 139.261 212.165C138.909 217.506 139.542 222.853 140.238 228.142C141.288 236.123 142.497 244.082 143.706 252.04C139.584 241.964 137.163 231.194 136.575 220.322C135.891 222.498 135.593 224.646 134.994 226.841C134.738 227.783 134.484 228.725 134.233 229.668C134.082 230.239 133.48 231.498 133.608 232.062C132.845 228.689 133.269 225.151 134.091 221.792C134.912 218.433 136.124 215.18 136.962 211.824C138.182 206.942 138.823 201.725 139.005 196.696C139.179 191.865 140.078 187.037 140.871 182.264C141.854 176.348 142.832 170.426 143.996 164.533C144.315 162.916 144.646 161.301 144.98 159.687C146.375 152.939 147.828 146.189 148.631 139.339C149.403 132.75 149.187 126.082 150.057 119.459C150.27 117.841 150.51 116.186 150.165 114.592C150.096 114.27 150.009 113.938 149.981 113.61C149.953 113.286 150.082 112.896 150.154 112.581C150.164 112.54 150.174 112.497 150.202 112.465C150.257 112.402 150.355 112.408 150.439 112.412C150.907 112.437 151.331 112.22 151.74 112.018C152.12 111.831 152.475 111.597 152.803 111.329C153.466 110.789 154.023 110.132 154.619 109.522C155.507 108.614 156.566 107.616 157.15 106.468C157.747 105.277 158.165 104.015 158.446 102.718C158.815 104.608 159.059 106.531 159.21 108.481C158.211 109.905 157.19 111.32 156.345 112.829Z" fill="#FFA1AD"/>
<path d="M137.174 200.327C135.638 208.008 133.552 215.588 130.724 222.894C128.613 218.977 125.965 216.172 123.799 209.712C122.204 204.961 115.661 199.507 121.138 171.913C121.542 171.626 121.946 171.34 122.345 171.046C128.389 166.613 133.942 161.189 137.408 155.733C138.712 153.672 139.878 151.541 141.388 149.346C141.637 148.987 141.88 148.626 142.123 148.266C142.069 151.339 141.744 154.5 141.614 157.567C140.993 171.887 139.991 186.247 137.174 200.327Z" fill="#FFA1AD"/>
<path d="M155.445 108.616C154.422 131.088 147.409 162.623 151.217 184.793C151.959 189.114 153.095 193.355 154.071 197.629C155.496 203.874 156.577 210.192 157.657 216.507C161.174 237.06 164.7 257.736 164.644 278.587" stroke="#90A1B9" stroke-width="0.294264" stroke-miterlimit="10"/>
<path d="M145.706 162.234C145.007 172.42 144.686 182.753 146.781 192.746C147.722 197.235 149.142 201.608 150.391 206.021C156.804 228.665 158.739 252.568 156.052 275.948" stroke="#90A1B9" stroke-width="0.294264" stroke-miterlimit="10"/>
<path d="M140.406 196.691C141.456 201.584 143.551 210.291 144.601 215.184C148.824 234.864 153.069 255.033 150.302 274.97C150.35 274.386 150.398 273.801 150.446 273.217" stroke="#90A1B9" stroke-width="0.294264" stroke-miterlimit="10"/>
<path d="M125.959 168.258C127.383 172.64 130.891 185.357 129.034 196.883" stroke="#90A1B9" stroke-width="0.294264" stroke-miterlimit="10"/>
<path d="M123.466 170.166C123.466 170.166 125.154 191.6 125.967 207.826" stroke="#90A1B9" stroke-width="0.294264" stroke-miterlimit="10"/>
<path d="M129.95 164.604C131.584 167.605 134.531 174.501 133.182 181.865" stroke="#90A1B9" stroke-width="0.294264" stroke-miterlimit="10"/>
<path d="M134.31 159.978C135.213 162.52 136.586 166.614 136.376 168.52" stroke="#90A1B9" stroke-width="0.294264" stroke-miterlimit="10"/>
<path d="M138.185 154.47C138.374 156.508 138.482 159.145 138.126 161.351" stroke="#90A1B9" stroke-width="0.294264" stroke-miterlimit="10"/>
<path d="M137.879 212.677C137.796 232.132 147.106 255.449 144.669 274.75" stroke="#90A1B9" stroke-width="0.294264" stroke-miterlimit="10"/>
<path d="M138.532 208.903C136.481 221.125 133.067 233.116 128.347 244.576C124.594 253.689 119.143 262.467 110.95 267.946C112.961 264.922 117.81 257.32 119.251 253.987C128.926 231.604 130.574 219.15 133.212 209.888C134.912 203.917 137.504 189.695 138.54 183.573C139.072 180.427 139.512 177.266 139.857 174.095C140.143 171.468 140.869 165.645 141.684 163.166C140.264 171.711 128.312 220.872 116.736 236.694C121.664 224.519 133.34 182.884 136.341 168.989C138.45 159.222 141.56 149.362 142.073 139.376C142.782 125.567 140.864 111.491 135.006 98.8748C131.016 90.2822 125.882 82.1267 114.83 80.4866C114.257 80.4194 114.865 77.1183 114.97 76.9945C115.078 76.8688 123.654 74.668 132.084 81.5405C140.829 88.6693 147.566 99.9359 149.878 110.835C153.044 125.76 148.585 138.847 146.768 153.93C145.856 161.495 144.553 169.008 143.096 176.484C141.686 183.715 141.246 191.091 140.173 198.426C139.661 201.924 139.117 205.417 138.532 208.903Z" fill="#FFCCD3" stroke="#90A1B9" stroke-width="0.294264" stroke-miterlimit="10"/>
<path d="M114.914 261.484C114.914 261.484 129.852 252.938 143.971 170.862" stroke="#90A1B9" stroke-width="0.294264" stroke-miterlimit="10"/>
<path d="M122.707 77.0251C122.707 77.0251 151.118 85.725 148.99 139.629" stroke="#90A1B9" stroke-width="0.294264" stroke-miterlimit="10"/>
<path d="M114.813 78.3599C114.813 78.3599 137.329 79.2058 142.388 108.238C147.446 137.269 143.245 153.482 143.985 171.088" stroke="#90A1B9" stroke-width="0.294264" stroke-miterlimit="10"/>
<path d="M178.031 54.2676C174.708 57.5413 172.937 62.2096 170.275 66.0013C168.714 68.2176 166.932 71.1376 164.787 72.8308C161.215 75.6531 154.866 86.5287 149.2 82.3311C148.044 81.4771 147.319 80.1681 146.693 78.8749C145.392 76.1796 144.301 73.8159 142.424 71.4391C141.236 69.9362 140.13 68.1425 140.359 66.2419C140.411 65.8034 140.541 65.3711 140.73 64.9367C141.996 62.0707 145.97 59.3131 148.153 57.7513C149.629 56.6955 151.28 55.7693 152.275 54.2546C153.09 53.0088 153.378 51.4814 154.181 50.2338C155.35 48.4133 157.438 47.4442 159.416 46.5647C163.392 44.791 167.394 42.5924 171.53 41.232C175.553 39.907 179.061 43.5484 180.066 47.15C180.193 47.5876 180.27 48.0351 180.3 48.4752C180.462 50.6117 179.604 52.7207 178.031 54.2676Z" fill="#FFCCD3" stroke="#90A1B9" stroke-width="0.294264" stroke-miterlimit="10"/>
<path d="M178.031 54.2676C174.708 57.5413 172.937 62.2096 170.275 66.0013C168.714 68.2177 166.932 71.1377 164.787 72.8308C161.215 75.6531 154.866 86.5287 149.2 82.3311C148.044 81.4771 147.319 80.1681 146.693 78.875C145.392 76.1796 144.301 73.816 142.424 71.4391C141.236 69.9362 140.13 68.1425 140.359 66.242C140.411 65.8034 140.541 65.3711 140.73 64.9367C141.655 65.7831 142.577 66.975 143.133 67.4877C144.568 68.8129 146.258 70.5283 148.029 71.3872C150.122 72.4023 152.802 72.7572 155.022 73.509C153.066 70.5917 152.172 66.9682 149.738 64.4359C152.672 66.5182 155.307 69.0225 157.534 71.8487C158.293 72.8121 159.6 74.0785 160.988 73.479C162.398 72.8715 161.748 71.0798 161.246 70.0534C160.832 69.2063 160.411 68.3612 159.95 67.5382C159.73 67.145 159.394 66.8208 159.181 66.423C159.112 66.2945 158.553 65.2636 158.55 65.2679C159.257 64.0495 159.48 62.5594 159.163 61.1867C158.747 59.3867 157.462 57.8588 157.17 56.0346C156.931 54.5476 157.383 53.0674 157.886 51.6839C158.361 50.3804 158.716 49.1107 159.523 47.9518C160.07 47.1643 160.732 46.4656 161.427 45.8086C161.846 45.4135 162.553 44.5069 163.176 44.5245C162.883 45.4899 162.165 46.4461 161.756 47.3937C161.305 48.4416 160.926 49.5216 160.638 50.6257C160.066 52.8167 159.852 55.1101 160.141 57.361C160.402 59.4024 161.06 61.3702 161.479 63.3852C161.807 64.9575 162.047 66.6774 163.186 67.8098C164.289 68.9068 166.944 66.8463 167.806 66.0809C169.045 64.9804 170.445 63.3432 170.422 61.5798C170.412 60.7453 170.133 59.9391 169.832 59.1603C169.194 57.513 168.407 55.8644 167.102 54.6746C167.957 55.2237 168.812 55.7722 169.667 56.3213C177.353 61.2545 176.663 46.4925 176.39 46.4324C177.38 46.6516 178.385 46.8909 179.224 47.4553C179.649 47.7385 180.005 48.082 180.299 48.4751C180.463 50.6117 179.604 52.7207 178.031 54.2676Z" fill="#FFA1AD"/>
<path d="M157.588 53.4343C157.588 53.4343 156.289 60.5025 168.282 68.6942" stroke="#90A1B9" stroke-width="0.294264" stroke-miterlimit="10"/>
<path d="M159.154 63.3737C159.154 63.3737 162.496 68.5321 165.848 71.8542" stroke="#90A1B9" stroke-width="0.294264" stroke-miterlimit="10"/>
<path d="M162.51 45.1283C159.651 46.8809 157.981 50.3388 157.493 53.6569C157.338 54.7161 157.277 55.8062 157.515 56.8497C157.865 58.3784 158.832 59.7116 159.175 61.2417C159.471 62.5579 159.047 64.154 158.403 65.339" stroke="#90A1B9" stroke-width="0.294264" stroke-miterlimit="10"/>
<path d="M150 56.4864C152.102 57.68 153.556 59.4659 155.107 61.3201C158.459 65.3247 161.875 69.4245 163.058 74.5104" stroke="#90A1B9" stroke-width="0.294264" stroke-miterlimit="10"/>
<path d="M144.203 60.7285C147.698 62.7325 150.233 65.3102 152.747 68.458C155.261 71.6058 157.368 75.0542 159.468 78.4918" stroke="#90A1B9" stroke-width="0.294264" stroke-miterlimit="10"/>
<path d="M143.787 61.1383C143.268 63.056 143.775 65.4202 144.413 67.3017C146.387 73.1316 149.229 78.8628 153.865 82.9117" stroke="#90A1B9" stroke-width="0.294264" stroke-miterlimit="10"/>
<path d="M157.902 51.6286C160.763 57.1692 165.316 62.3623 170.507 65.8158" stroke="#90A1B9" stroke-width="0.294264" stroke-miterlimit="10"/>
<path d="M158.693 49.4926C164.681 51.4947 169.691 56.3192 172.987 61.7045" stroke="#90A1B9" stroke-width="0.294264" stroke-miterlimit="10"/>
<path d="M158.464 47.0427C156.182 49.2233 155.157 52.6373 155.861 55.714C156.167 57.0509 156.771 58.3125 156.986 59.6669C157.163 60.7821 157.4 62.3208 156.905 63.5453" stroke="#90A1B9" stroke-width="0.294264" stroke-miterlimit="10"/>
<path d="M154.963 49.3471C154.319 50.7591 154.025 52.3303 154.118 53.8797C154.18 54.9102 154.407 55.9245 154.489 56.9541C154.571 57.983 154.495 59.064 153.99 59.9652" stroke="#90A1B9" stroke-width="0.294264" stroke-miterlimit="10"/>
<path d="M144.152 60.7412C145.407 68.9451 150.4 76.2539 157.507 80.5394" stroke="#90A1B9" stroke-width="0.294264" stroke-miterlimit="10"/>
<path d="M146.437 59.0211C153.004 63.4747 157.931 69.6849 160.776 77.0912" stroke="#90A1B9" stroke-width="0.294264" stroke-miterlimit="10"/>
<path d="M142.488 62.3663C142.623 66.9942 143.707 71.8896 145.402 76.1972" stroke="#90A1B9" stroke-width="0.294264" stroke-miterlimit="10"/>
<path d="M148.102 75.7012C148.319 76.7049 148.721 78.0245 149.173 79.0409C149.771 80.3892 150.538 81.8564 152.42 83.2029" stroke="#90A1B9" stroke-width="0.294264" stroke-miterlimit="10"/>
<path d="M160.412 46.9195C163.6 47.19 166.251 48.9925 168.514 51.2545C170.777 53.5166 172.557 56.2058 174.567 58.6953" stroke="#90A1B9" stroke-width="0.294264" stroke-miterlimit="10"/>
<path d="M164.276 44.2277C169.366 46.9548 173.596 50.7415 176.81 55.5384" stroke="#90A1B9" stroke-width="0.294264" stroke-miterlimit="10"/>
<path d="M168.801 42.2541C171.483 42.1508 174.196 43.1835 175.742 45.4302C177.573 48.0925 177.003 51.6417 176.125 54.5595" stroke="#90A1B9" stroke-width="0.294264" stroke-miterlimit="10"/>
<path d="M176.16 41.7909C177.673 43.674 178.678 46.112 179.12 48.1855C179.483 49.8898 179.27 51.8287 178.743 53.4892" stroke="#90A1B9" stroke-width="0.294264" stroke-miterlimit="10"/>
<path d="M167.941 42.5626C171.896 43.5914 175.332 46.7966 176.917 50.5631" stroke="#90A1B9" stroke-width="0.294264" stroke-miterlimit="10"/>
<path d="M166.21 43.3638C166.83 43.4845 167.506 43.9726 167.998 44.3678C169.732 45.7613 174.575 49.1355 176.544 52.949" stroke="#90A1B9" stroke-width="0.294264" stroke-miterlimit="10"/>
<path d="M114.716 76.9536C114.695 77.0515 114.68 77.1444 114.66 77.2307C114.565 77.1141 114.458 77.0015 114.339 76.8928C113.602 76.2137 112.445 75.7352 111.221 75.377C111.215 75.3761 111.215 75.3761 111.209 75.3751C110.89 75.282 110.575 75.2015 110.254 75.1258C110.076 75.0852 109.903 75.0455 109.731 75.0057C109.558 74.966 109.385 74.9321 109.217 74.8992C108.865 74.8304 108.506 74.7608 108.153 74.6979C107.875 74.6471 107.614 74.5992 107.371 74.5541C105.519 74.2138 103.604 74.2212 101.76 74.5679C98.9015 75.1028 97.0176 75.9915 94.5099 77.4593C85.6818 82.6359 78.045 89.8166 72.3261 98.3019C72.2474 98.4204 72.1638 98.5321 72.0821 98.6322C72.0004 98.7323 71.9206 98.8207 71.8359 98.9025C71.807 98.9336 71.7791 98.9589 71.757 98.9851C71.7165 99.0144 71.676 99.0436 71.6414 99.0738C71.6211 99.0884 71.6067 99.104 71.5865 99.1186C70.9534 99.6068 70.2905 99.5774 69.6558 99.2248C67.6897 98.145 65.913 93.966 65.4895 92.0439C65.4627 91.9144 65.4398 91.7974 65.4218 91.6872C65.2289 90.3685 65.2285 89.0391 65.3694 87.7205C65.5046 86.401 65.7684 85.0963 66.0944 83.8135C67.2458 79.3314 69.3572 75.2544 72.1409 71.6672C72.285 71.4758 72.4339 71.2912 72.5887 71.1075C72.7242 70.9326 72.8646 70.7645 72.9982 70.6012C73.1904 70.3699 73.3818 70.1444 73.578 69.9256C73.8116 69.6593 74.0511 69.3938 74.2897 69.1342C78.0479 65.0483 82.7041 61.7151 87.7088 59.2906C94.517 55.9942 102.356 54.6225 109.772 56.1035C111.863 56.5179 113.995 57.2011 115.526 58.6819C116.207 59.3401 116.64 60.0237 116.883 60.7307C117.185 61.596 117.206 62.4995 117.075 63.4262C116.924 64.4749 115.438 73.2905 114.716 76.9536Z" fill="#FFCCD3" stroke="#90A1B9" stroke-width="0.294264" stroke-miterlimit="10"/>
<path d="M65.3718 87.7209C65.2308 89.0394 65.2312 90.3689 65.4241 91.6876C65.4553 91.9012 65.5147 92.1612 65.5927 92.4539C66.1765 94.4913 67.9192 98.1044 69.7542 99.1095C70.3831 99.4612 70.9893 99.5469 71.5888 99.119C71.609 99.1043 71.6234 99.0888 71.6437 99.0742C71.6783 99.044 71.7188 99.0147 71.7535 98.9846C71.7814 98.9592 71.8093 98.9339 71.8382 98.9028C71.9229 98.8211 72.0027 98.7326 72.0844 98.6325C72.1661 98.5324 72.2497 98.4207 72.3284 98.3022C78.0473 89.8169 85.6842 82.6362 94.5122 77.4596C97.0199 75.9919 98.9038 75.1032 101.762 74.5682C103.606 74.2216 105.521 74.2141 107.374 74.5544C107.588 74.5948 107.819 74.6381 108.063 74.6774C108.103 74.6898 108.144 74.6963 108.184 74.7029C108.335 74.7272 108.48 74.7564 108.63 74.7866C108.798 74.8138 108.96 74.8458 109.128 74.8787C109.44 74.9409 109.756 75.0098 110.066 75.0836C110.446 75.1687 110.83 75.2663 111.206 75.3745C111.217 75.3764 111.234 75.385 111.245 75.3869C112.205 75.6846 113.352 76.6324 114.341 76.8931C114.466 76.9312 114.594 76.9517 114.719 76.954L114.725 76.9133C114.782 76.6363 114.835 76.3409 114.899 76.0174C115.657 71.9844 116.915 64.4675 117.062 63.5195C117.205 62.5589 117.194 61.6272 116.881 60.7243C116.882 60.7185 116.878 60.7059 116.873 60.6991C116.841 60.6403 116.815 60.5766 116.783 60.5177C116.977 60.8722 116.794 61.394 116.682 61.7449C116.554 62.1446 116.438 62.6446 116.15 62.9599C115.896 63.2374 115.607 63.2265 115.256 63.2177C114.675 63.2034 114.108 63.1735 113.528 63.1277C112.888 63.077 112.243 63.1263 111.601 63.1093C110.814 63.088 110.034 62.9677 109.253 62.871C108.117 62.7309 106.975 62.6423 105.835 62.554C105.075 62.4948 104.312 62.4362 103.552 62.4884C105.294 62.9973 107.149 63.0727 108.946 63.3043C109.627 63.3921 110.312 63.4803 110.975 63.6612C111.571 63.8234 112.145 64.0583 112.705 64.3179C113.154 64.5254 113.598 64.7515 113.981 65.063C115.759 66.5082 115.228 68.7798 114.734 70.6847C110.577 65.8897 104.346 63.4908 98.2898 61.6029C96.2914 60.9828 94.2283 60.3941 92.1442 60.565C94.6264 61.7339 97.0695 62.9979 99.457 64.3483C104.301 67.102 109.065 70.3495 112.144 74.9945C111.171 74.4086 110.068 74.0401 109.114 73.4512C108.425 73.0302 107.86 72.4623 107.16 72.0336C105.131 70.7945 103.113 69.4798 100.959 68.4533C96.4051 66.2708 91.4926 64.9786 86.6115 63.751C91.4208 66.7196 96.5259 69.11 101.424 71.932C101.638 72.0499 101.874 72.2131 101.876 72.4578C101.885 72.7693 101.519 72.9368 101.218 73.0255C99.0832 73.6233 96.954 74.2221 94.8189 74.82C93.9321 75.0705 93.3016 75.3206 92.534 75.7931C91.7008 76.3026 90.8698 76.5025 89.9169 76.349C89.4719 76.1879 89.114 75.856 88.7669 75.5318C85.6668 72.6478 82.5667 69.7638 79.4724 66.8808C80.4282 68.8291 81.2944 70.6676 82.5819 72.4071C83.9611 74.2806 85.3007 76.1775 86.5999 78.1036C86.7101 78.2704 86.8263 78.474 86.7538 78.6649C86.7109 78.7832 86.603 78.8612 86.5018 78.9343C85.7453 79.486 85.2489 80.1989 84.5817 80.8246C84.0821 81.2985 83.4179 81.573 82.9 82.0499C82.796 82.1404 82.6852 82.2359 82.549 82.2676C82.4011 82.2974 82.2547 82.244 82.115 82.1857C80.8834 81.6534 79.945 80.5961 79.3068 79.4143C78.6744 78.2335 78.3123 76.9292 77.9667 75.6336C77.7444 74.793 77.5222 73.9525 77.3058 73.1128C76.9935 71.906 76.6963 70.6063 77.1399 69.4438C75.7123 71.8665 76.0711 74.893 76.4818 77.6715C76.6999 79.1671 76.9179 80.6628 77.1359 82.1584C77.2513 82.9221 77.3581 83.7024 77.2189 84.4549C76.9753 85.745 76.063 86.671 75.1738 87.565C74.5434 88.1847 74.0435 88.9566 73.5376 89.6918C72.8847 90.6358 71.0251 92.965 71.6385 94.2263C69.7355 90.3131 69.4659 85.8822 70.0331 81.622C70.5919 77.414 72.193 73.064 74.2927 69.1341C73.7953 69.6679 73.3126 70.222 72.8522 70.7857C72.6965 70.9752 72.5407 71.1647 72.3966 71.3561C72.2486 71.5349 72.1064 71.7147 71.9758 71.8963C71.9171 71.9644 71.8643 72.0333 71.8105 72.1081C71.5751 72.4219 71.3456 72.7366 71.1209 73.0581C70.9817 73.2563 70.8415 73.4602 70.7081 73.6593C70.4268 74.073 70.1572 74.4885 69.8973 74.9176C69.7678 75.1292 69.6384 75.3408 69.5138 75.5592C69.1619 76.1523 68.8313 76.7607 68.5222 77.3845C68.2445 77.924 67.9891 78.473 67.7502 79.0306C67.3956 79.8259 67.0797 80.6394 66.8026 81.471C66.6406 81.9218 66.496 82.3754 66.3678 82.8376C66.268 83.1613 66.1798 83.4869 66.0973 83.8134C65.7708 85.0967 65.5069 86.4014 65.3718 87.7209Z" fill="#FFA1AD"/>
<path d="M93.9441 56.2351C93.0654 58.4404 91.883 60.5247 90.4406 62.4103" stroke="#90A1B9" stroke-width="0.294264" stroke-miterlimit="10"/>
<path d="M114.6 77.0345C109.333 68.6604 97.9858 62.6836 88.4626 61.0496" stroke="#90A1B9" stroke-width="0.294264" stroke-miterlimit="10"/>
<path d="M115.688 71.9937C111.84 67.2009 105.182 63.7984 100.108 62.1486C96.8195 61.0799 93.4535 60.249 90.0453 59.6659" stroke="#90A1B9" stroke-width="0.294264" stroke-miterlimit="10"/>
<path d="M116.804 65.4797C112.575 62.9939 105.595 62.6137 100.798 62.3784" stroke="#90A1B9" stroke-width="0.294264" stroke-miterlimit="10"/>
<path d="M117.263 62.526C114.467 60.8086 108.241 59.9575 104.524 59.7289C100.976 59.5106 97.417 59.6173 93.8657 59.7664" stroke="#90A1B9" stroke-width="0.294264" stroke-miterlimit="10"/>
<path d="M115.445 58.6475C107.564 57.0418 99.8027 57.2119 92.8954 57.8932" stroke="#90A1B9" stroke-width="0.294264" stroke-miterlimit="10"/>
<path d="M86.8304 82.818C83.2368 79.4455 80.3931 74.6076 79.2012 69.8255" stroke="#90A1B9" stroke-width="0.294264" stroke-miterlimit="10"/>
<path d="M81.9112 86.8032C79.5608 84.4716 78.0643 81.3989 77.0854 78.2362C76.7071 77.0134 76.3976 75.7564 76.366 74.4762C76.3316 73.099 76.625 71.7149 77.2148 70.4699" stroke="#90A1B9" stroke-width="0.294264" stroke-miterlimit="10"/>
<path d="M77.0334 92.3844C73.0533 86.1456 71.6433 76.7197 75.6628 69.5802" stroke="#90A1B9" stroke-width="0.294264" stroke-miterlimit="10"/>
<path d="M72.7801 97.5416C68.0157 88.656 68.7951 77.2192 74.5036 68.9093" stroke="#90A1B9" stroke-width="0.294264" stroke-miterlimit="10"/>
<path d="M89.8689 79.9174C87.1146 76.8 83.6278 72.6049 80.8735 69.4875" stroke="#90A1B9" stroke-width="0.294264" stroke-miterlimit="10"/>
<path d="M105.84 74.4432C104.401 72.274 100.73 70.0057 95.0646 67.3503C92.306 66.0575 89.4277 65.0376 86.609 63.8812" stroke="#90A1B9" stroke-width="0.294264" stroke-miterlimit="10"/>
<path d="M95.2262 76.5065C92.5569 72.5318 89.1381 69.0624 85.2033 66.3348" stroke="#90A1B9" stroke-width="0.294264" stroke-miterlimit="10"/>
<path d="M78.9418 164.977C74.9678 177.654 71.2447 185.739 66.8989 194.434C63.6194 200.987 58.5418 205.123 54.0473 210.116C53.3789 210.86 52.7183 211.63 52.0831 212.428C50.7798 214.042 49.5682 215.79 48.5125 217.754C48.3928 217.979 48.2731 218.204 48.1591 218.431C45.548 223.5 44.0052 228.968 41.0319 233.807C37.5714 239.449 35.5385 246.072 32.4587 251.978C32.0995 252.653 31.7038 253.37 31.0362 253.74C30.442 254.061 29.7269 254.059 29.0486 254.051C18.6725 253.852 8.31351 252.695 -1.84736 250.605C-1.17336 250.714 6.53571 235.575 7.03542 234.582C10.6983 227.351 15.0921 220.208 18.2352 212.762C21.4528 205.15 24.3303 197.614 28.2462 190.292C33.9542 179.617 39.6918 169.573 44.2961 158.387C48.6215 147.895 52.8559 137.745 54.9436 126.565C56.9438 115.853 58.4302 103.52 62.8031 93.0297C63.5634 91.197 64.4159 89.4208 65.3694 87.7205C65.2285 89.0391 65.2289 90.3685 65.4218 91.6872C65.6216 93.0368 66.8366 96.2251 68.3676 98.0813C66.5812 103.767 65.3596 109.573 64.8512 115.243C64.3868 120.456 64.5363 125.559 65.1548 130.636C65.307 131.948 65.495 133.26 65.713 134.571C66.0402 136.573 66.4332 138.574 66.8794 140.577C68.8309 149.369 73.3529 157.376 78.6368 164.576C78.7401 164.712 78.8376 164.847 78.9418 164.977Z" fill="#FFCCD3" stroke="#90A1B9" stroke-width="0.294264" stroke-miterlimit="10"/>
<path d="M50.9296 222.99C49.4615 222.557 48.7743 220.902 48.3928 219.422C48.3088 219.093 48.2306 218.764 48.1591 218.431C47.8178 216.883 47.4104 215.127 47.4722 213.534C47.4995 212.827 47.2971 210.258 47.5724 209.841C45.4363 213.083 43.2996 216.325 41.1628 219.568C39.2776 222.43 37.3867 225.3 35.882 228.379C37.2809 224.1 38.9997 219.926 41.0185 215.902C43.7101 210.537 47.0156 205.291 48.2619 199.343C49.4766 193.547 50.1971 187.577 51.1364 181.71C51.5195 179.318 51.9031 176.926 52.2855 174.534C52.589 172.636 52.6732 170.622 53.1158 168.764C51.5996 172.753 49.6654 176.585 47.3542 180.174C42.3791 187.898 37.1513 195.47 32.6091 203.464C28.0075 211.563 24.5166 220.472 20.5475 228.938C19.6792 230.789 18.809 232.645 18.1439 234.579C19.3984 222.82 25.0662 212.055 30.6296 201.62C34.809 193.78 39.185 186.226 43.896 178.695C48.4142 171.472 52.5227 163.428 54.7963 155.185C57.1654 146.594 58.1886 137.662 59.5963 128.881C60.6952 122.024 62.7976 115.376 64.1308 108.545C64.581 106.269 65.656 103.408 65.8144 101.204C65.9854 98.8111 64.0876 96.7527 63.407 94.5387C63.2859 94.1436 63.0712 93.6262 62.8039 93.0287C63.5641 91.196 64.4167 89.4198 65.3702 87.7195C65.2293 89.0381 65.2297 90.3675 65.4226 91.6862C65.6224 93.0358 66.8374 96.2241 68.3684 98.0803C66.582 103.766 65.3603 109.572 64.852 115.242C64.3876 120.455 64.537 125.558 65.1556 130.635C63.4915 138.188 61.8206 145.746 60.1498 153.304C59.1429 157.851 58.1418 162.399 57.3664 166.989C56.4511 172.374 55.8612 177.811 55.2664 183.241C54.2062 192.966 53.145 202.696 52.0838 212.427C51.6947 215.948 51.3122 219.469 50.9296 222.99Z" fill="#FFA1AD"/>
<path d="M78.9418 164.977C74.9677 177.654 71.2447 185.739 66.8989 194.434C63.6194 200.987 58.5417 205.123 54.0473 210.116C52.8963 197.799 54.9144 185.385 56.9558 173.16C58.6918 162.793 60.4615 152.402 63.3144 142.28C64.0019 139.863 64.5184 136.954 65.713 134.571C66.0402 136.573 66.4332 138.574 66.8794 140.577C68.8309 149.369 73.3529 157.376 78.6368 164.576C78.7401 164.712 78.8376 164.847 78.9418 164.977Z" fill="#FFA1AD"/>
<path d="M66.2849 94.485C60.1982 116.141 57.0322 148.061 46.4534 167.914C44.3922 171.782 41.981 175.452 39.7128 179.203C36.398 184.685 33.3873 190.343 30.3782 195.999C20.5842 214.407 10.7414 232.929 4.24573 252.743" stroke="#90A1B9" stroke-width="0.294264" stroke-miterlimit="10"/>
<path d="M58.7713 148.226C56.2352 158.116 53.2941 168.027 48.1659 176.856C45.8625 180.823 43.1415 184.528 40.5689 188.326C27.3682 207.809 18.0237 229.894 13.2303 252.936" stroke="#90A1B9" stroke-width="0.294264" stroke-miterlimit="10"/>
<path d="M52.9805 182.604C50.4467 186.919 45.7221 194.528 43.1883 198.843C32.9978 216.201 22.6328 234.016 18.9971 253.813C19.1354 253.243 19.2732 252.673 19.4115 252.103" stroke="#90A1B9" stroke-width="0.294264" stroke-miterlimit="10"/>
<path d="M75.5355 160.138C73.0023 163.525 57.9031 181.587 55.9805 193.519" stroke="#90A1B9" stroke-width="0.294264" stroke-miterlimit="10"/>
<path d="M77.4426 162.601C77.4426 162.601 64.2524 194.902 55.6104 204.14" stroke="#90A1B9" stroke-width="0.294264" stroke-miterlimit="10"/>
<path d="M72.8224 155.667C70.3558 157.955 58.4267 172.074 57.3808 179.587" stroke="#90A1B9" stroke-width="0.294264" stroke-miterlimit="10"/>
<path d="M69.9702 149.975C68.3234 152.111 60.5216 162.524 60.1365 164.334" stroke="#90A1B9" stroke-width="0.294264" stroke-miterlimit="10"/>
<path d="M67.8291 144.461C67.1672 146.112 62.1196 155.112 61.8382 156.858" stroke="#90A1B9" stroke-width="0.294264" stroke-miterlimit="10"/>
<path d="M50.3571 198.574C44.3258 217.071 28.1625 236.284 24.4135 255.374" stroke="#90A1B9" stroke-width="0.294264" stroke-miterlimit="10"/>
<path d="M50.9233 194.787C49.0309 207.034 48.5063 219.491 49.3872 231.853C50.0879 241.684 52.5056 251.73 58.563 259.505C57.6038 256.002 55.3882 247.262 55.0674 243.645C52.9126 219.356 55.2594 207.014 55.6646 197.393C56.0604 187.944 57.5065 178.288 59.2461 169.001C59.9269 165.368 60.844 161.785 61.6659 158.182C62.4499 154.745 62.8482 151.174 63.8309 147.821C65.8543 140.92 67.0592 133.86 69.7556 127.152C72.3097 120.797 73.86 114.114 77.1119 107.983C80.2878 101.994 84.1853 96.3779 88.8305 91.434C95.317 84.5293 102.754 78.3995 113.761 80.3138C114.326 80.4299 114.786 77.1048 114.725 76.9543C114.662 76.8012 107.211 72.0179 97.0487 75.8946C86.5076 79.9158 76.6137 87.7821 70.9947 97.4042C63.3012 110.579 63.3836 125.118 60.3708 140.008C58.8598 147.477 57.7371 155.018 56.7724 162.574C55.8393 169.882 53.9406 177.023 52.6556 184.324C52.0433 187.806 51.4629 191.293 50.9233 194.787Z" fill="#FFCCD3" stroke="#90A1B9" stroke-width="0.294264" stroke-miterlimit="10"/>
<path d="M99.5288 82.4193C80.3325 103.959 77.6055 135.445 77.0527 163.068" stroke="#FFCCD3" stroke-width="0.294264" stroke-miterlimit="10"/>
<path d="M111.979 75.6678C111.979 75.6678 82.9816 70.6479 65.3068 112.36" stroke="#90A1B9" stroke-width="0.294264" stroke-miterlimit="10"/>
<path d="M114.446 78.3007C114.446 78.3007 92.8033 72.0314 78.8817 98.005C64.9602 123.979 63.8567 140.691 57.6243 157.172" stroke="#90A1B9" stroke-width="0.294264" stroke-miterlimit="10"/>
<path d="M68.7385 57.3552C71.2434 61.1549 73.8551 73.4778 80.553 71.273C81.9197 70.8232 83.0186 69.808 84.0197 68.7747C86.1011 66.6267 87.875 64.7259 90.4068 63.057C92.0055 62.0031 93.6174 60.6492 94.0012 58.7736C94.6711 55.5045 91.0867 50.7649 89.2668 48.2636C88.1995 46.7963 86.9165 45.4021 86.4497 43.6488C86.0676 42.2132 86.2766 40.6719 85.9051 39.2338C85.3633 37.1394 83.6874 35.5608 82.0878 34.1043C78.8688 31.1737 75.7613 27.8289 72.2625 25.2366C68.857 22.7129 64.3842 25.0736 62.2992 28.173C60.8097 30.3878 60.7788 33.2025 61.9935 35.5711C64.1219 39.7209 64.3338 44.7099 65.6732 49.1463C66.4589 51.7432 67.2334 55.0721 68.7385 57.3552Z" fill="#FFCCD3" stroke="#90A1B9" stroke-width="0.294264" stroke-miterlimit="10"/>
<path d="M62.0645 35.5819C64.1913 39.7338 64.4069 44.7223 65.7428 49.1581C66.5289 51.7527 67.3035 55.0846 68.8078 57.3657C71.3129 61.1673 73.924 73.4865 80.6221 71.2812C81.9878 70.8336 83.0872 69.8185 84.0879 68.7875C86.1691 66.637 87.9479 64.7359 90.4758 63.0687C91.9336 62.109 93.9259 60.6172 94.0449 58.7061C94.1022 57.7842 93.9127 56.7444 93.6588 55.86C93.5214 55.3807 93.3447 54.9123 93.1319 54.4613C92.9744 54.1289 92.497 53.6067 92.4487 53.2627C92.5904 54.2626 92.1278 55.2396 91.6556 56.1316C90.6922 57.9519 89.6271 59.7344 88.2642 61.2781C86.9013 62.8218 85.2201 64.1253 83.2803 64.8172C82.57 65.0705 81.8321 65.2401 81.0952 65.3998C80.5233 65.5234 79.9462 65.6421 79.3608 65.6604C77.4858 65.7177 75.7099 64.7449 73.8347 64.6919C76.4019 63.6319 78.8532 62.2922 81.1331 60.7067C82.1495 60.0001 83.0801 59.1599 84.1645 58.5931C85.3486 57.9743 86.4523 57.007 87.3884 56.0622C88.3986 55.0429 89.0229 53.7986 90.1717 52.8618C88.3131 53.6717 86.4544 54.4816 84.5958 55.2915C83.7957 55.6401 82.9949 55.9891 82.227 56.4037C79.9842 57.6149 78.0768 59.3564 75.948 60.7588C74.2974 61.8461 72.746 60.0426 72.3066 58.5113C71.9679 57.3319 72.1978 56.7042 73.042 55.8417C73.9504 54.9133 74.9678 53.5935 76.1135 52.9578C76.5252 52.7297 77.0808 52.7554 77.2015 52.18C77.2523 51.939 77.2042 51.6898 77.1715 51.4455C76.9829 50.022 77.3602 48.5316 78.2026 47.369C78.7837 46.5673 79.5626 45.9322 80.2034 45.1776C81.5525 43.5899 81.9691 40.8899 81.9223 38.8573C81.8679 36.5195 81.0703 34.6259 80.0733 32.5666C80.386 33.2119 80.3339 33.9683 80.2431 34.6798C80.0266 36.3748 79.6318 38.0406 79.2375 39.7034C78.9828 40.7771 78.7249 41.8598 78.2525 42.8567C77.4602 44.5293 76.0967 45.8923 75.3861 47.6014C74.9693 48.6048 74.7864 49.7062 74.2497 50.651C73.6506 51.7056 72.4659 52.6837 71.2319 52.8574C70.2231 52.9995 69.3493 51.8477 68.7866 51.1043C67.8974 49.9303 67.1328 48.5487 66.8752 47.0842C66.6106 45.5817 66.8794 44.6754 68.2215 43.8604C71.7247 41.7339 75.2281 39.607 78.7307 37.4805C73.9714 38.0012 69.3766 39.947 65.6898 43.0018C64.7524 39.9512 63.9377 36.9717 64.4882 33.7775C64.5622 33.3477 65.5017 28.6008 66.0822 28.6574C65.0734 28.5544 64.0445 28.4661 63.0706 28.7384C62.5779 28.8737 62.1321 29.0879 61.7291 29.3688C60.9048 31.3474 61.0574 33.6194 62.0645 35.5819Z" fill="#FFA1AD"/>
<path d="M81.8509 40.3617C81.8509 40.3617 80.6783 48.32 66.7185 52.3299" stroke="#90A1B9" stroke-width="0.294264" stroke-miterlimit="10"/>
<path d="M77.0555 50.1451C77.0555 50.1451 72.2626 53.9928 68.0368 56.094" stroke="#90A1B9" stroke-width="0.294264" stroke-miterlimit="10"/>
<path d="M79.6003 31.769C81.7645 34.3312 82.264 38.1386 81.6846 41.4419C81.4998 42.4965 81.2149 43.5504 80.6608 44.4662C79.8491 45.8078 78.512 46.7697 77.7051 48.1145C77.0115 49.2713 76.9122 50.9196 77.1514 52.247" stroke="#90A1B9" stroke-width="0.294264" stroke-miterlimit="10"/>
<path d="M87.9103 46.482C85.5391 46.9548 83.5982 48.1937 81.5427 49.4667C77.1033 52.216 72.5722 55.0352 69.8517 59.4922" stroke="#90A1B9" stroke-width="0.294264" stroke-miterlimit="10"/>
<path d="M92.0809 52.3301C88.1337 53.1349 84.9175 54.786 81.542 56.9848C78.1666 59.1837 75.0823 61.7955 72.0088 64.3995" stroke="#90A1B9" stroke-width="0.294264" stroke-miterlimit="10"/>
<path d="M92.3477 52.85C92.2373 54.8334 91.0131 56.9187 89.8175 58.5049C86.1117 63.4195 81.6132 67.9679 75.9402 70.3557" stroke="#90A1B9" stroke-width="0.294264" stroke-miterlimit="10"/>
<path d="M81.7553 36.7225C80.1036 35.3273 77.7319 35.0292 75.6172 35.4789C73.5024 35.9286 71.5914 37.0377 69.7779 38.2149C67.6754 39.5799 65.7996 40.9253 64.2628 42.9048" stroke="#90A1B9" stroke-width="0.294264" stroke-miterlimit="10"/>
<path d="M81.9339 39.3879C77.4768 43.7493 71.5239 47.2497 65.5099 48.8976" stroke="#90A1B9" stroke-width="0.294264" stroke-miterlimit="10"/>
<path d="M81.8239 37.1813C80.0743 38.4648 77.951 39.8335 75.9673 40.7127C74.1094 41.5364 72.1353 42.0642 70.2333 42.7807C68.3312 43.4971 66.2949 44.5592 64.9007 46.0382" stroke="#90A1B9" stroke-width="0.294264" stroke-miterlimit="10"/>
<path d="M81.8536 37.1115C75.5399 37.1314 69.2683 40.1382 64.448 44.2157" stroke="#90A1B9" stroke-width="0.294264" stroke-miterlimit="10"/>
<path d="M82.8409 34.8575C84.3227 37.6447 84.2236 41.2079 82.5886 43.9077C81.8786 45.0809 80.9084 46.0888 80.2793 47.3073C79.7612 48.3105 79.0526 49.6968 79.1383 51.0149" stroke="#90A1B9" stroke-width="0.294264" stroke-miterlimit="10"/>
<path d="M85.4403 38.1449C85.6089 39.688 85.3937 41.2717 84.8192 42.7136C84.437 43.6726 83.9023 44.564 83.5009 45.5158C83.1003 46.467 82.8333 47.5172 83.0288 48.5312" stroke="#90A1B9" stroke-width="0.294264" stroke-miterlimit="10"/>
<path d="M92.1253 52.3581C88.3568 59.7526 81.321 65.1232 73.2273 66.9594" stroke="#90A1B9" stroke-width="0.294264" stroke-miterlimit="10"/>
<path d="M89.1147 47.9089C81.8325 50.565 75.4085 55.1578 70.6318 61.262" stroke="#90A1B9" stroke-width="0.294264" stroke-miterlimit="10"/>
<path d="M90.4964 50.0074C82.8634 52.173 76.2344 56.5212 71.2073 62.659" stroke="#90A1B9" stroke-width="0.294264" stroke-miterlimit="10"/>
<path d="M90.1588 52.8126C84.9727 58.3281 79.5604 62.9457 72.245 64.8942" stroke="#90A1B9" stroke-width="0.294264" stroke-miterlimit="10"/>
<path d="M93.1951 54.4238C91.6135 58.7752 89.0465 63.0822 86.0841 66.6394" stroke="#90A1B9" stroke-width="0.294264" stroke-miterlimit="10"/>
<path d="M83.6761 65.3203C83.155 66.205 82.3589 67.3316 81.611 68.1547C80.619 69.2467 79.4301 70.3988 77.2204 71.086" stroke="#90A1B9" stroke-width="0.294264" stroke-miterlimit="10"/>
<path d="M80.2447 32.6866C78.5176 32.1657 76.3134 32.5378 74.5915 33.0728C70.618 34.3068 66.6372 36.4671 63.2476 38.8795" stroke="#90A1B9" stroke-width="0.294264" stroke-miterlimit="10"/>
<path d="M78.2072 30.3595C72.518 31.3498 67.3129 33.6163 62.7544 37.1607" stroke="#90A1B9" stroke-width="0.294264" stroke-miterlimit="10"/>
<path d="M74.5307 27.0643C72.0176 26.124 69.1171 26.2522 66.944 27.8997C64.369 29.8519 63.7954 33.4006 63.7124 36.4465" stroke="#90A1B9" stroke-width="0.294264" stroke-miterlimit="10"/>
<path d="M70.6801 24.3139C65.8424 26.0834 62.3284 31.1732 62.3425 36.3242" stroke="#90A1B9" stroke-width="0.294264" stroke-miterlimit="10"/>
<path d="M67.69 24.3132C65.6621 25.6258 63.9416 27.6246 62.8711 29.455C61.9915 30.9592 61.5846 32.8668 61.5632 34.6088" stroke="#90A1B9" stroke-width="0.294264" stroke-miterlimit="10"/>
<path d="M75.2501 27.6273C71.1725 27.362 66.9038 29.3257 64.2159 32.4037" stroke="#90A1B9" stroke-width="0.294264" stroke-miterlimit="10"/>
<path d="M76.6423 28.9318C76.0162 28.8518 75.2204 29.1027 74.6293 29.3234C72.5456 30.1018 66.8875 31.7838 63.8202 34.7858" stroke="#90A1B9" stroke-width="0.294264" stroke-miterlimit="10"/>
</g>
</svg>
